<?xml version="1.0" encoding="UTF-8" standalone="no"?>
<!-- Created with Vectornator (http://vectornator.io/) -->

<svg
   height="790.39142"
   stroke-miterlimit="10"
   style="clip-rule:evenodd;fill-rule:nonzero;stroke-linecap:round;stroke-linejoin:round"
   version="1.1"
   viewBox="0 0 471.40079 790.39142"
   width="471.40079"
   xml:space="preserve"
   id="svg209"
   sodipodi:docname="DALLE-2024-01-18-12_with_text(2).svg"
   inkscape:export-filename="logo.svg"
   inkscape:export-xdpi="300"
   inkscape:export-ydpi="300"
   xmlns:inkscape="http://www.inkscape.org/namespaces/inkscape"
   xmlns:sodipodi="http://sodipodi.sourceforge.net/DTD/sodipodi-0.dtd"
   xmlns="http://www.w3.org/2000/svg"
   xmlns:svg="http://www.w3.org/2000/svg"
   xmlns:vectornator="http://vectornator.io"><sodipodi:namedview
   id="namedview209"
   pagecolor="#ffffff"
   bordercolor="#000000"
   borderopacity="0.25"
   inkscape:showpageshadow="2"
   inkscape:pageopacity="0.0"
   inkscape:pagecheckerboard="0"
   inkscape:deskcolor="#d1d1d1" />&#10;<defs
   id="defs1" />&#10;<g
   id="Ohne-Titel"
   vectornator:layerName="Ohne Titel"
   transform="translate(-276.29531,-130.36)">&#10;<g
   opacity="1"
   vectornator:layerName="g"
   id="g202">&#10;<path
   d="m 513.345,220.286 c -0.646,0.035 0.06,0.062 -5.717,0.298 -1.742,0.624 -4.101,1.151 -4.601,1.151 -1,0 -1.527,-5.135 -2.627,-21.035 -0.3,-5.4 -1,-9.5 -1.5,-9.1 -0.5,0.3 -0.9,4.7 -0.9,9.7 0,5.1 -0.7,16.4 -1.5,25.2 -0.8,8.8 -1.5,21.3 -1.5,27.7 0,6.7 -0.4,11.9 -1,12.3 -0.6,0.4 -1,-1.6 -1,-5.4 0,-3.3 -0.4,-6.2 -0.9,-6.6 -0.6,-0.3 -1.1,8.1 -1.3,20.9 -0.2,15.5 -0.6,21.9 -1.5,22.8 -1,1 -1.3,0 -1.3,-5 0,-6.2 -1.2,-8.2 -2.4,-4 -0.3,1.3 -0.6,9.5 -0.6,18.3 0,8.8 -0.3,24.4 -0.7,34.7 -0.5,15.2 -0.9,18.8 -2.1,19.3 -0.8,0.3 -1.7,0.4 -1.9,0.2 -0.2,-0.2 -1.2,-17.7 -2.3,-38.8 -3,-58.4 -3.1,-60.9 -4,-60.9 -0.4,0 -1,8.7 -1.4,19.2 -0.4,10.6 -1.4,31.9 -2.1,47.3 -0.8,15.4 -1.8,43.9 -2.2,63.3 -0.5,28.7 -0.9,35.5 -2,35.9 -0.8,0.3 -1.6,0.4 -1.8,0.2 -0.6,-0.6 -3.3,-41.2 -4.6,-67.9 -1.1,-23 -1.4,-25.9 -2.3,-24.9 -0.2,0.2 -0.9,14.3 -1.5,31.4 -1.2,31.2 -2.6,55.8 -4,69.2 -0.8,7.8 -0.3,8.9 1.9,4.7 0.8,-1.4 3.2,-3.6 5.5,-4.9 4.3,-2.5 12.5,-4.4 12.5,-2.8 0,0.5 -1.9,1.4 -4.2,2 -5.8,1.6 -10.9,6 -14.2,12.5 -2.6,4.8 -2.9,6.6 -3.7,20.8 -0.4,8.5 -0.8,20.5 -0.9,26.6 0,9.4 -0.3,11.3 -1.6,11.8 -0.9,0.4 -1.8,0.5 -1.9,0.4 -0.8,-0.9 -2.5,-21.1 -2.5,-29.1 0,-10.4 -0.8,-16 -2.1,-15.1 -0.5,0.3 -0.9,3.4 -0.9,6.9 0,5.6 -0.9,21.5 -2.4,42.9 l -0.4,5.8 3.1,-3 c 1.8,-1.6 4.2,-3.5 5.4,-4.1 2.7,-1.4 12,-1.5 12.8,-0.1 0.4,0.6 -1,1 -3.5,1 -5.4,0 -8.9,1.9 -13.8,7.6 -4.8,5.4 -4.9,5.7 -5.7,31.5 -0.6,19.1 -1.8,27 -3.7,25.1 -0.7,-0.7 -1.6,-10.8 -2.2,-24.6 -0.6,-12.9 -1.4,-23.7 -1.7,-24.1 -0.4,-0.3 -1,7.2 -1.3,16.7 -0.4,9.5 -1.2,24.3 -1.7,32.8 -1.2,20.9 -1.2,34 0.2,34 0.6,0 1.9,-0.4 2.9,-1 1.5,-0.8 1.9,-2.8 2.5,-13.7 0.3,-7.1 1.1,-14.2 1.6,-15.9 1.2,-3.8 5.3,-7.8 10.2,-9.9 L 446,569 v -8.1 c 0,-10.8 2.6,-17 8.5,-20.4 2.3,-1.4 4.9,-2.5 5.8,-2.5 1,0 1.7,-0.8 1.7,-1.8 0.1,-6.7 8,-14.6 16.1,-16 l 4.4,-0.8 0.5,-24.9 c 0.3,-13.8 0.4,-25.3 0.2,-25.8 -0.6,-1.3 -5.7,2.4 -8.2,6.1 -2.4,3.4 -2.5,4.4 -3,23.6 -0.4,17.4 -0.7,20.1 -2.1,20.4 -2.3,0.4 -2.9,-7 -2,-26.3 0.6,-14.1 1,-16.5 3,-20.2 2.5,-4.3 6.1,-7.5 9.9,-8.7 1.3,-0.5 2.2,-1.6 2.3,-2.9 0,-1.2 0.4,-7.4 0.8,-13.8 0.7,-10 1.2,-12.3 3.7,-16.9 3.2,-5.8 9.2,-11 16,-13.6 l 4.4,-1.7 v -28.1 c 0,-15.4 0.4,-28.7 0.9,-29.4 0.4,-0.8 1.9,-1.2 3.2,-1 2.4,0.3 2.4,0.5 3,13.8 0.4,7.4 0.7,20.8 0.8,29.6 l 0.1,16.1 3.3,0.7 c 4.9,1 13.2,7.2 16.6,12.4 3.9,6.2 5,11.5 5.1,24.4 V 464 h 2.5 c 3.5,0 10,6.2 12.1,11.5 1.4,3.7 1.6,7.4 1.2,23.9 -0.2,10.7 -0.7,19.8 -1.1,20.2 -0.4,0.4 -1.3,0.2 -1.9,-0.4 -0.9,-0.9 -1.4,-7.5 -1.6,-21.8 l -0.4,-20.6 -4.2,-4.4 c -2.4,-2.4 -4.8,-4.4 -5.4,-4.4 -0.9,0 -1.2,6.4 -1,25.6 l 0.3,25.7 4.7,1.2 c 8.6,2.2 15.8,8.9 15.8,14.8 0,0.9 1.5,2.1 3.5,2.7 4.5,1.5 9.1,5.3 11.2,9.4 1,1.9 1.8,6.6 2.1,12.2 l 0.5,9.2 3.7,1.5 c 2,0.8 5,3.1 6.5,5.1 2.7,3.6 2.9,4.5 3.8,19.1 1,15 1.1,15.3 3.4,15.8 1.3,0.2 2.5,0.1 2.8,-0.3 0.5,-0.8 -1.3,-63.7 -2.1,-74.8 -0.3,-3.9 -0.9,-7 -1.3,-6.7 -0.4,0.2 -1.1,8.9 -1.4,19.2 -0.8,20.5 -1.5,26.6 -2.9,25.7 -2.3,-1.4 -3,-7.2 -3.7,-27.1 l -0.6,-21.1 -3,-4.4 c -3.4,-4.8 -10.2,-8.8 -15.2,-8.8 -4.3,0 -5.4,-2 -1.1,-2.2 6.7,-0.3 9.4,0.5 13.8,3.6 l 4.5,3.2 -1.2,-16.5 c -0.6,-9.1 -1.2,-21.4 -1.2,-27.4 -0.1,-5.9 -0.5,-10.7 -1,-10.7 -1,0 -2.1,9.4 -2.2,18.9 0,3.6 -0.6,10.9 -1.2,16.2 -1.1,9.2 -1.3,9.6 -3.3,8.9 -2,-0.8 -2.1,-1.7 -2.7,-26.8 l -0.7,-26 -3.2,-6.2 c -3.3,-6.6 -8.8,-11.2 -15,-12.6 -2,-0.4 -2.6,-0.9 -1.8,-1.4 1.6,-1 8.5,0.6 11.7,2.7 1.4,1 3.9,3.5 5.6,5.8 2.9,3.9 2.9,3.9 2.3,1 -1.4,-6.9 -5.6,-80.2 -5.6,-98.5 0,-5.3 -0.4,-9 -0.9,-8.4 -0.4,0.5 -1.6,16.6 -2.5,35.9 -2,43.5 -3.3,55.5 -5.6,55.5 -1.5,0 -1.8,-2 -2.3,-17.3 -0.4,-9.4 -0.7,-24 -0.7,-32.2 0,-8.3 -0.6,-29.9 -1.4,-48 -0.8,-18.2 -1.8,-40.8 -2.1,-50.3 -0.4,-9.4 -1.1,-17.2 -1.6,-17.2 -0.5,0 -0.9,0.8 -0.9,1.7 -0.1,18.8 -4.3,90.7 -5.6,95.8 -1,4.1 -3.1,2.9 -3.8,-2.1 -0.3,-2.6 -0.6,-14.9 -0.6,-27.4 0,-25.7 -0.9,-44 -2.2,-44 -0.4,0 -0.8,2.7 -0.8,5.9 0,6.2 -1.3,8.8 -2.4,4.8 -0.3,-1.2 -0.6,-11.4 -0.7,-22.7 -0.1,-15.8 -0.3,-18.9 -1,-13.7 -1.9,16.6 -2.8,7.7 -5.5,-54.8 -0.3,-6.6 -0.8,-12.7 -1.2,-13.5 -0.7,-1.8 -1.9,8.5 -2.2,19 -0.1,4.1 -0.5,8.4 -0.9,9.5 -0.7,1.8 -0.158,1.223 -3.702,0.496 0,0 -4.621,-0.601 -5.053,-0.71 z m 4.055,4.114 c 6,2.5 6.6,4.3 6.6,20.9 0,11.4 -0.3,14.8 -1.2,14.5 -0.9,-0.3 -1.4,-3.9 -1.5,-12.4 -0.2,-6.5 -0.5,-12.9 -0.8,-14.1 -1.4,-6 -9.7,-8.3 -14.9,-4.2 -2.6,2 -2.6,2.2 -2.6,14.9 0,9.8 -0.3,13 -1.4,13.9 -2.5,2.1 -2.8,-0.5 -2.1,-14.2 0.8,-14.4 1.5,-16.4 6.7,-19 4.1,-2 6.9,-2.1 11.2,-0.3 z m -2.6,14.3 c 0.3,2.1 0,2.2 -3,1.6 -4.1,-0.7 -4.2,-0.8 -3.4,-2.8 0.9,-2.6 6,-1.6 6.4,1.2 z m -4.8,6.8 c 0,0.8 -0.4,1.5 -0.9,1.5 -1.3,0 -2.2,-1.6 -1.4,-2.4 1.1,-1.1 2.3,-0.6 2.3,0.9 z m 3.9,8.5 c -1.3,3.5 -1.7,3.6 -3.5,1.2 -2.2,-2.8 -1.6,-4.2 1.5,-4.2 2.9,0 3,0.1 2,3 z m 6.5,7.9 c 5.7,3.2 7,6.2 7.7,17.9 0.3,5.9 0.4,10.9 0.2,11.1 -0.1,0.2 -0.9,-0.2 -1.8,-0.9 -1.1,-0.9 -1.5,-3.2 -1.5,-8.1 0,-12.6 -4.1,-17.9 -13.9,-17.9 -4.2,0 -5.6,0.5 -8.3,2.9 -3,2.7 -3.3,3.4 -3.9,11.3 -1.2,15.5 -3.6,17.8 -3.2,3.1 0.5,-15.2 2.2,-18.6 11,-20.8 5.4,-1.4 9.4,-1 13.7,1.4 z m -7,20.5 -0.7,7.3 3.9,0.6 c 5.4,0.9 9.8,3.9 13.1,8.8 l 2.8,4.2 0.3,30.8 0.3,30.7 4.1,-0.6 c 4.6,-0.6 9.5,1.5 11.7,5 0.8,1.2 1.6,5.1 1.9,8.6 0.4,5.3 0.2,6.4 -0.9,6 -0.9,-0.3 -1.6,-2.5 -1.9,-5.6 -0.7,-6.6 -3.8,-10.2 -9,-10.2 -2,0 -4.1,0.5 -4.8,1.2 -0.9,0.9 -1.2,8 -1.2,26 0,13.6 -0.4,24.8 -0.8,24.8 -3,0 -3.2,-2.7 -3.2,-57.3 0,-61.6 0.2,-59.5 -7.2,-64.5 -2.8,-1.8 -5.7,-2.7 -9.6,-3 -5.1,-0.3 -6.1,-0.1 -10,2.8 -2.4,1.7 -4.9,4.6 -5.6,6.3 -1,2.4 -1.5,16.9 -2,58.6 -0.5,42.5 -0.9,55.7 -1.9,56.3 -0.9,0.6 -1.3,-4.7 -1.7,-24 l -0.5,-24.7 -2.8,-1.3 c -3.6,-1.7 -8.4,-0.7 -9.9,2.1 -0.7,1.2 -1.5,4.4 -1.8,7.2 -0.6,6.2 -2.4,6.1 -2.8,-0.1 -0.6,-9.4 3.5,-13.8 12.4,-13.2 l 5.4,0.3 v -30 c 0,-27.1 0.2,-30.4 1.9,-34.1 2.2,-4.9 6.9,-8.7 13,-10.5 l 4.4,-1.3 -0.6,-6.7 c -0.6,-7.2 -0.4,-7.9 2.5,-7.9 1.6,0 1.7,0.7 1.2,7.4 z m 4.7,31.5 c 2.3,2.3 2.9,3.9 2.9,7 0,3 -0.4,4.1 -1.5,4.1 -0.9,0 -1.5,-0.9 -1.5,-2.5 0,-3.9 -2.1,-7.5 -4.8,-8.2 -3.7,-0.9 -5.7,0.9 -6,5.3 -0.4,4 -1.7,6.4 -3.4,6.4 -1.6,0 -0.4,-9.5 1.6,-12.4 2.5,-3.8 8.7,-3.7 12.7,0.3 z m -0.6,23.7 c 3,3.2 4.2,8.8 2.5,10.9 -1.8,2.1 -3,0.9 -3,-3.1 0,-5.5 -5.9,-9.7 -8.8,-6.1 -0.6,0.7 -1.2,3.2 -1.4,5.6 -0.5,6.8 -2.8,6.5 -2.8,-0.3 0,-4.3 0.5,-6.1 2,-7.6 3,-3 8.5,-2.7 11.5,0.6 z m -30.7,38.2 c 0.2,1.4 -0.2,2.2 -1.2,2.2 -1.9,0 -2.9,-1.7 -2.2,-3.6 0.8,-2.2 3,-1.2 3.4,1.4 z m 53.5,-1.6 c 0.6,1.9 -0.3,3.8 -1.9,3.8 -0.8,0 -1.4,-1 -1.4,-2.5 0,-2.6 2.5,-3.5 3.3,-1.3 z m -55.5,17 c 1.7,1.7 1.5,7.7 -0.3,8.4 -1.2,0.5 -1.5,3 -1.5,13.8 0,13.3 -0.5,17.6 -2.1,17.6 -0.5,0 -0.9,-8.7 -0.9,-19.3 0,-18.3 0.5,-21.7 3,-21.7 0.3,0 1.1,0.5 1.8,1.2 z m 58,20.8 c 0.2,18.8 0.1,20.3 -1.3,17.6 -1.1,-2.1 -1.5,-6.2 -1.5,-16.2 0,-7.8 -0.4,-13.5 -1,-13.9 -1.1,-0.7 -1.4,-6.8 -0.3,-7.9 0.4,-0.4 1.4,-0.5 2.3,-0.4 1.3,0.3 1.5,3.2 1.8,20.8 z m 16,46.3 c 0.3,3.2 0,3.7 -1.7,3.7 -1.8,0 -2.1,-0.6 -2.1,-4.1 0,-3.3 0.3,-4 1.8,-3.7 1.2,0.2 1.8,1.4 2,4.1 z m -90,-0.1 c -0.2,2.5 -0.8,3.4 -2.5,3.6 -2,0.3 -2.3,-0.1 -2.3,-3.2 0,-3.2 0.3,-3.6 2.6,-3.6 2.3,0 2.5,0.3 2.2,3.2 z m -16.2,71.4 c 0,2.6 -1.5,4.4 -3.2,3.7 -1.7,-0.6 -1.8,-3.5 -0.2,-5.1 1.6,-1.6 3.3,-1 3.4,1.4 z m 121.2,0.3 c 0.2,1.2 0.1,3 -0.3,3.9 -0.5,1.4 -0.7,1.4 -2.2,0 -1.1,-1.1 -1.3,-2.5 -0.9,-4.3 0.8,-3.1 3,-2.8 3.4,0.4 z"
   fill="#000000"
   fill-rule="nonzero"
   opacity="1"
   stroke="none"
   vectornator:layerName="path"
   id="path1" />&#10;<path
   d="m 416,212.4 c -48.7,19.8 -90.5,56.5 -111,97.3 -5.5,11.1 -8.4,20.5 -10.5,34.3 -2.2,14 -1.8,46 0.5,46 0.4,0 1,-4.4 1.3,-9.8 1.8,-30.4 22.2,-66.1 54.1,-94.5 22.2,-19.7 47.1,-34.2 76.1,-44.3 4.4,-1.5 8.1,-2.8 8.2,-2.8 0.1,-0.1 -0.7,-3.7 -1.8,-8.1 -1,-4.4 -2.2,-11.2 -2.5,-15.2 -0.5,-5.8 -1,-7.3 -2.3,-7.3 -0.9,0.1 -6.3,2 -12.1,4.4 z"
   fill="#000000"
   fill-rule="nonzero"
   opacity="1"
   stroke="none"
   vectornator:layerName="path"
   id="path2" />&#10;<path
   d="m 594.6,208.8 c -0.2,0.4 -0.6,3.6 -1,7.2 -0.6,5.7 -2.7,16.5 -4.1,21.1 -0.4,1.3 1.5,2.3 8.7,4.9 21.5,7.6 39.1,16.7 56.3,29 45.8,32.7 73.5,76 74.6,117 l 0.1,4.5 1,-3.5 c 0.5,-1.9 1,-11.8 1,-22 0.1,-19.6 -0.8,-26.2 -5.6,-41.2 -7.1,-21.8 -20.4,-42 -42,-63.4 C 671,249.9 662.5,242.9 648.9,234 632.3,223 596.1,206.3 594.6,208.8 Z"
   fill="#000000"
   fill-rule="nonzero"
   opacity="1"
   stroke="none"
   vectornator:layerName="path"
   id="path3" />&#10;<path
   d="m 280.8,370.5 c -6.2,32.6 -6,66.6 0.6,92.9 5.7,22.4 13.2,38.2 26.5,55.3 7.3,9.3 17.9,19.9 18.9,18.8 0.4,-0.3 0,-1 -0.8,-1.5 -1.7,-1.1 -0.9,-2.3 1.1,-1.5 1.8,0.7 4.2,4.5 3.4,5.3 -0.3,0.4 -1,0 -1.5,-0.8 -0.6,-0.8 -1,-1 -1,-0.4 0,1.2 2.1,3.4 3.3,3.4 0.4,0 0.5,-0.5 0.2,-1 -0.3,-0.6 0.1,-1 0.9,-1 1.9,0 2.1,1.1 0.4,2.8 -0.9,0.9 -0.9,1.2 0,1.2 0.7,0 1.2,-0.5 1.2,-1 0,-1.9 1.8,-1 6.4,3.4 2.6,2.5 4.6,3.8 4.6,3 0,-0.8 0.7,-1.4 1.5,-1.4 1.8,0 2,1.7 0.3,2.3 -0.7,0.2 -1,0.8 -0.6,1.2 0.5,0.5 1.6,-0.2 2.7,-1.4 1.2,-1.3 2.2,-1.8 2.6,-1.1 0.3,0.5 0.1,1 -0.6,1 -1,0 -1,0.3 0,1.2 1.1,1.1 1.4,1 1.8,0 0.3,-0.6 0.8,-1 1.3,-0.7 1,0.6 0.1,4.5 -1.1,4.5 -0.5,0 -0.9,0.5 -0.9,1.1 0,0.5 0.4,0.8 0.9,0.4 0.5,-0.3 1.2,0.3 1.4,1.2 0.3,1.3 0.5,1.1 0.6,-0.6 0.1,-2.3 0.2,-2.3 2,-0.7 1.2,1.1 2.1,1.4 2.6,0.7 1.2,-2.1 2.6,-1.2 1.5,1 -0.9,1.6 -1.4,1.8 -2.6,0.8 -2.1,-1.7 -2.8,-0.5 -0.8,1.5 1.2,1.3 1.9,1.4 3,0.6 2.2,-1.9 6.5,1.8 6.1,5.3 -0.2,1.7 0.1,2.6 0.7,2.4 0.6,-0.2 1.1,-1.3 1.2,-2.4 0.1,-1.1 1.2,-3.1 2.4,-4.3 1.8,-1.8 2.2,-1.9 1.7,-0.5 -0.4,0.9 -0.2,2.4 0.4,3.1 0.8,1 0.8,1.4 0,1.4 -0.6,0 -1.1,-0.5 -1.1,-1 0,-0.6 -0.4,-1 -1,-1 -1.6,0 -1.2,2.7 0.6,3.4 0.8,0.3 1.2,1 0.9,1.6 -0.3,0.5 -0.1,1 0.5,1 0.6,0 1.4,-1 1.9,-2.2 0.5,-1.4 1,-1.7 1.5,-1 0.4,0.7 -0.2,2.5 -1.4,4.1 -1.2,1.8 -1.6,3.2 -1,3.6 0.5,0.3 1,-0.1 1,-0.9 0,-0.9 0.6,-1.6 1.3,-1.6 0.7,0 2.3,-0.9 3.4,-1.9 2.1,-2 2.1,-2 1.9,0.3 0,1.4 -0.6,2.2 -1.3,1.9 -0.7,-0.3 -1.3,0.2 -1.3,1 0,0.8 -0.6,1.7 -1.2,2 -0.7,0.2 -1,0.8 -0.6,1.2 0.4,0.4 1.4,0 2.3,-0.9 2,-1.9 3.5,-2.1 3.5,-0.4 0,1.4 5,4.1 5.9,3.3 0.2,-0.3 -0.4,-1.1 -1.4,-1.9 -1.2,-0.8 -1.4,-1.5 -0.7,-2 0.6,-0.3 1.5,0.1 2,1 0.6,1.1 1.7,1.5 3.1,1.1 1.1,-0.3 1.9,-0.1 1.5,0.4 -0.3,0.5 -0.2,1.4 0.2,2 0.4,0.8 1.3,0.4 2.5,-1.2 1.5,-1.9 1.9,-2 1.9,-0.7 0,0.9 -0.6,1.8 -1.2,2.1 -0.9,0.3 -0.7,0.7 0.6,1.2 1.1,0.5 2.1,0.3 2.8,-0.6 0.7,-1 0.8,-0.8 0.3,0.8 -0.5,1.7 -0.2,2.3 0.9,2.3 0.9,0 1.6,-0.5 1.6,-1.1 0,-0.5 0.5,-0.7 1,-0.4 1.8,1.1 1.1,3.5 -1,3.5 -1.1,0 -2,0.5 -2,1.1 0,0.6 0.9,0.8 2.3,0.3 2.4,-0.8 3.6,-0.8 8.5,0.2 3.3,0.6 4.5,2.4 1.6,2.4 -1.4,0 -1.4,0.2 -0.3,1.6 0.8,1 1.5,1.2 1.7,0.5 0.2,-0.6 1,-1.1 1.7,-1.1 1.2,0 2,-8 2.7,-28 l 0.3,-7.5 -5,-2.3 c -17.2,-8 -40.1,-22.4 -53,-33.2 -26.9,-22.7 -46.4,-47.4 -60.7,-77 -11.5,-23.7 -16.2,-41.6 -17.6,-67 l -0.7,-13.5 z M 327,523 c 0,0.5 -0.5,1 -1.1,1 -0.5,0 -0.7,-0.5 -0.4,-1 0.3,-0.6 0.8,-1 1.1,-1 0.2,0 0.4,0.4 0.4,1 z m -7.5,3 c 0.3,0.5 -0.1,1 -0.9,1 -0.9,0 -1.6,-0.5 -1.6,-1 0,-0.6 0.4,-1 0.9,-1 0.6,0 1.3,0.4 1.6,1 z m 2.5,3 c 0,0.5 -0.5,1 -1.1,1 -0.5,0 -0.7,-0.5 -0.4,-1 0.3,-0.6 0.8,-1 1.1,-1 0.2,0 0.4,0.4 0.4,1 z m 3,3 c 0,0.5 -0.4,1 -1,1 -0.5,0 -1,-0.5 -1,-1 0,-0.6 0.5,-1 1,-1 0.6,0 1,0.4 1,1 z m 8.5,3 c -0.3,0.5 -1.1,1 -1.6,1 -0.6,0 -0.7,-0.5 -0.4,-1 0.3,-0.6 1.1,-1 1.6,-1 0.6,0 0.7,0.4 0.4,1 z m 2.9,2.5 c -0.7,1.6 -2.4,2.1 -2.4,0.6 0,-0.8 0.7,-1.3 2.7,-2 0.1,-0.1 0,0.6 -0.3,1.4 z m 2.8,1.4 c -1.1,0.6 -0.8,1.4 1.1,3.5 1.3,1.4 2.9,2.6 3.6,2.6 0.6,0 1.1,0.7 1.1,1.5 0,2.3 -1.3,1.8 -4,-1.5 -1.4,-1.6 -3.1,-2.9 -3.7,-3 -0.7,0 -1.3,-0.4 -1.3,-0.8 0,-1.2 2.2,-3.2 3.5,-3.2 0.5,0 0.4,0.4 -0.3,0.9 z m 19.3,15.1 c 0.3,0.5 0.1,1 -0.4,1 -0.6,0 -1.1,-0.5 -1.1,-1 0,-0.6 0.2,-1 0.4,-1 0.3,0 0.8,0.4 1.1,1 z m 9,3 c 0.3,0.5 0.1,1 -0.4,1 -0.6,0 -1.1,-0.5 -1.1,-1 0,-0.6 0.2,-1 0.4,-1 0.3,0 0.8,0.4 1.1,1 z m -2.5,2 c 0,0.5 -0.4,1 -1,1 -0.5,0 -1,-0.5 -1,-1 0,-0.6 0.5,-1 1,-1 0.6,0 1,0.4 1,1 z m 6,0 c 0,0.5 -0.4,1 -1,1 -0.5,0 -1,-0.5 -1,-1 0,-0.6 0.5,-1 1,-1 0.6,0 1,0.4 1,1 z m -2.5,2 c 0.3,0.5 -0.1,1 -1,1 -0.9,0 -1.3,-0.5 -1,-1 0.3,-0.6 0.8,-1 1,-1 0.2,0 0.7,0.4 1,1 z m 11,5 c 0.3,0.5 0.1,1 -0.4,1 -0.6,0 -1.1,-0.5 -1.1,-1 0,-0.6 0.2,-1 0.4,-1 0.3,0 0.8,0.4 1.1,1 z m 5.5,7.2 c 0,1.6 -0.3,1.9 -1.1,1.1 -0.6,-0.6 -0.8,-1.6 -0.5,-2.2 1.1,-1.7 1.6,-1.3 1.6,1.1 z m 27,11.4 c 0,0.8 -0.4,1.2 -1,0.9 -0.5,-0.3 -1,-1 -1,-1.6 0,-0.5 0.5,-0.9 1,-0.9 0.6,0 1,0.7 1,1.6 z"
   fill="#000000"
   fill-rule="nonzero"
   opacity="1"
   stroke="none"
   vectornator:layerName="path"
   id="path4" />&#10;<path
   d="m 742.1,365.5 c -1.4,32.4 -6,51.4 -18.9,77.1 -12.7,25.4 -26.3,43.7 -47.6,64.1 -19,18.3 -39.1,32.3 -62,43.1 l -9.8,4.7 0.6,5.9 c 0.3,3.2 0.6,11.3 0.6,17.8 0,8.5 0.3,11.7 1.1,11.2 0.6,-0.3 1.5,0 2,0.7 0.6,1 0.9,0.8 0.9,-0.9 0,-1.5 0.5,-2.2 1.3,-1.9 0.6,0.2 1.1,0.8 1,1.3 -0.2,1.5 2.5,3.5 3.2,2.4 0.3,-0.6 0.2,-1 -0.3,-1 -0.5,0 -1.2,-1.1 -1.4,-2.4 -0.4,-1.8 -0.1,-2.3 1,-1.8 1.2,0.4 1.4,0 0.8,-2.3 -0.6,-2.5 -0.5,-2.6 0.9,-1.2 0.8,0.9 1.5,2 1.5,2.6 0,0.6 0.4,1.1 1,1.1 0.5,0 0.7,-0.7 0.4,-1.5 -0.4,-1.1 -0.2,-1.3 0.9,-0.9 1,0.3 1.7,-0.1 2,-1.3 0.3,-1.4 0.8,-1 2.1,1.7 1.5,3 1.6,3.1 1.1,0.7 -0.3,-1.5 -0.1,-2.7 0.4,-2.7 0.6,0 0.7,-1.6 0.4,-3.8 -0.3,-2 -0.3,-3.4 0,-3.1 0.4,0.3 0.8,1.5 1,2.8 0.2,1.2 1,2.6 1.7,3.1 1.1,0.7 1.1,1.1 0.1,2.4 -0.8,0.9 -0.9,1.6 -0.3,1.6 0.5,0 1.5,-0.6 2.1,-1.4 0.9,-1.1 0.9,-1.7 -0.2,-2.7 -1.4,-1.5 -1.8,-5.9 -0.5,-5.9 0.4,0 0.8,0.9 0.8,1.9 0,1.1 0.5,2.3 1.2,2.7 0.7,0.5 0.9,0.2 0.5,-0.8 -0.7,-1.9 1.8,-5.7 2.9,-4.5 0.5,0.4 0.4,1.1 -0.2,1.5 -1.5,1 -1.2,5.1 0.4,5.7 1,0.3 1.1,-0.1 0.7,-1.5 -0.6,-1.8 -0.3,-2 1.9,-1.4 1.8,0.4 2.6,0.2 2.6,-0.7 0,-0.7 -0.3,-1 -0.6,-0.6 -1,1 -3.6,-2.2 -2.8,-3.4 0.5,-0.8 1,-0.7 1.6,0.5 1.2,2.1 4,2.2 3.2,0.1 -0.5,-1.1 -0.2,-1.3 1,-0.9 1.2,0.5 1.5,0.2 1,-1 -0.3,-0.9 -1.2,-1.6 -2,-1.6 -0.8,0 -1.4,-0.5 -1.4,-1 0,-1.3 1.3,-1.3 2.7,0.1 0.8,0.8 1.6,0.7 3.1,-0.2 1.7,-1.1 2.3,-0.9 4.6,1.7 1.4,1.6 2.6,2.3 2.6,1.6 0,-0.6 -0.4,-1.2 -1,-1.2 -0.5,0 -1,-0.7 -1,-1.5 0,-0.9 -0.7,-1.8 -1.5,-2.1 -0.8,-0.4 -1.5,-1.2 -1.5,-2 0,-0.8 -0.4,-1.4 -1,-1.4 -0.5,0 -1,-0.5 -1,-1 0,-1.8 3.3,1 6.3,5.2 1.7,2.3 3.2,3.6 3.9,3.2 0.8,-0.5 0.5,-1.2 -1,-2.2 -1.2,-0.8 -2.2,-2 -2.2,-2.7 0,-0.8 -0.6,-1.5 -1.2,-1.8 -0.7,-0.2 -1,-0.7 -0.7,-1.1 1.1,-1.2 3.8,0.5 3.2,2 -0.4,1 0,1.2 1.1,0.8 1.4,-0.5 1.4,-0.9 0.4,-2.3 -0.7,-0.9 -2,-2.1 -2.8,-2.8 -1.3,-1.1 -1.3,-1.2 0.3,-1.3 1,0 2.6,1.3 3.5,3 1.9,3.3 4.5,5 3.5,2.2 -0.3,-0.9 -1,-2.2 -1.5,-2.9 -0.5,-0.7 -0.5,-1.4 0.2,-1.8 0.5,-0.3 1,0.1 1,0.9 0,0.9 0.7,1.6 1.5,1.6 0.8,0 1.5,-0.5 1.5,-1 0,-0.6 -0.5,-1 -1.1,-1 -0.6,0 -0.9,-0.6 -0.6,-1.4 0.3,-0.8 0.1,-1.7 -0.6,-2 -0.7,-0.2 -0.4,-0.5 0.6,-0.5 0.9,-0.1 1.7,0.5 1.7,1.2 0,1.5 4,5.1 4.8,4.3 0.3,-0.3 -0.3,-1.5 -1.3,-2.6 -1.8,-1.9 -1.7,-2 0.3,-2 1.1,0 2.2,0.6 2.5,1.2 0.2,0.8 0.8,0.9 1.3,0.4 0.5,-0.5 0.4,-1.1 -0.3,-1.3 -0.7,-0.3 -1.3,-1.1 -1.3,-1.9 0,-0.8 -0.5,-1.4 -1.1,-1.4 -0.5,0 -0.7,-0.5 -0.3,-1.1 0.3,-0.6 0.9,-0.7 1.3,-0.3 0.3,0.5 1.5,1.6 2.5,2.4 1.8,1.4 1.8,1.3 1.2,-0.8 -0.5,-1.6 -0.3,-2.4 0.9,-2.8 1.2,-0.5 1.3,-0.9 0.4,-2 -0.7,-0.8 -0.9,-1.7 -0.5,-2.1 0.3,-0.3 0.6,-0.2 0.6,0.3 0,0.5 1.8,0.8 4,0.8 5.9,-0.2 6,-0.3 6,-2 0,-1 0.6,-1.4 1.4,-1.1 1,0.4 1.3,0.1 0.9,-0.9 -0.7,-1.8 -1.9,-1.8 -2.7,0.2 -0.3,0.8 -1.1,1.2 -1.7,0.9 -0.7,-0.5 -0.3,-1.4 1.1,-2.7 2,-1.9 2.2,-1.9 4.6,-0.3 2.5,1.6 2.6,1.6 1.9,-0.5 -0.6,-1.9 -0.4,-2.1 1.4,-1.5 1.6,0.5 2,0.3 1.5,-0.9 -0.4,-0.9 -0.1,-2.3 0.6,-3.1 1.4,-1.7 3,-2 3,-0.4 0,0.5 -0.4,0.7 -1,0.4 -0.5,-0.3 -1,0.2 -1,1.2 0.1,1.5 0.5,1.3 2.5,-1 1.3,-1.5 2.9,-2.7 3.5,-2.7 1.4,0 1.3,-1.7 -0.2,-2.3 -0.7,-0.2 -0.9,-0.8 -0.5,-1.3 0.4,-0.5 1.2,-0.2 1.7,0.6 0.8,1.2 1.3,1.1 3,-0.8 1.1,-1.2 2.6,-2.2 3.1,-2.2 0.6,0 0.9,-0.7 0.5,-1.5 -0.3,-0.8 0,-1.4 0.6,-1.2 1.7,0.3 16.6,-19.7 21.6,-29.1 2.3,-4.4 6.3,-14.2 8.7,-21.6 8,-24.2 10.6,-48.7 8.5,-78.1 -1.1,-16 -4.7,-39.6 -4.9,-33 z M 709.5,524 c -0.3,0.5 -1.1,1 -1.6,1 -0.6,0 -0.7,-0.5 -0.4,-1 0.3,-0.6 1.1,-1 1.6,-1 0.6,0 0.7,0.4 0.4,1 z m -3.5,2 c 0,0.5 -0.4,1 -1,1 -0.5,0 -1,-0.5 -1,-1 0,-0.6 0.5,-1 1,-1 0.6,0 1,0.4 1,1 z m -5,0.4 c 0,0.3 -0.4,0.8 -1,1.1 -0.5,0.3 -1,0.1 -1,-0.4 0,-0.6 0.5,-1.1 1,-1.1 0.6,0 1,0.2 1,0.4 z m 2,2.6 c 0,0.5 -0.2,1 -0.4,1 -0.3,0 -0.8,-0.5 -1.1,-1 -0.3,-0.6 -0.1,-1 0.4,-1 0.6,0 1.1,0.4 1.1,1 z m -9.5,6 c 0.3,0.5 0.1,1 -0.4,1 -0.6,0 -1.1,-0.5 -1.1,-1 0,-0.6 0.2,-1 0.4,-1 0.3,0 0.8,0.4 1.1,1 z m 4.5,0 c 0,0.5 -0.4,1 -1,1 -0.5,0 -1,-0.5 -1,-1 0,-0.6 0.5,-1 1,-1 0.6,0 1,0.4 1,1 z m -17.5,5 c 0.3,0.5 0.1,1 -0.4,1 -0.6,0 -1.1,-0.5 -1.1,-1 0,-0.6 0.2,-1 0.4,-1 0.3,0 0.8,0.4 1.1,1 z m 8.5,0.4 c 0,0.3 -0.4,0.8 -1,1.1 -0.5,0.3 -1,0.1 -1,-0.4 0,-0.6 0.5,-1.1 1,-1.1 0.6,0 1,0.2 1,0.4 z m -10,7.6 c 0,0.5 -0.4,1 -0.9,1 -0.6,0 -1.3,-0.5 -1.6,-1 -0.3,-0.6 0.1,-1 0.9,-1 0.9,0 1.6,0.4 1.6,1 z m -10,2 c 0,0.5 -0.5,1 -1.1,1 -0.5,0 -0.7,-0.5 -0.4,-1 0.3,-0.6 0.8,-1 1.1,-1 0.2,0 0.4,0.4 0.4,1 z m 3,2 c 0,0.5 -0.4,1 -1,1 -0.5,0 -1,-0.5 -1,-1 0,-0.6 0.5,-1 1,-1 0.6,0 1,0.4 1,1 z m -5,0.4 c 0,0.3 -0.4,0.8 -1,1.1 -0.5,0.3 -1,0.1 -1,-0.4 0,-0.6 0.5,-1.1 1,-1.1 0.6,0 1,0.2 1,0.4 z m -1.6,4.7 c -0.6,1.1 -2.4,0.2 -2.4,-1.1 0,-0.5 0.7,-0.7 1.5,-0.4 0.8,0.4 1.2,1 0.9,1.5 z m -10.9,0.9 c 0.3,0.5 0.1,1 -0.4,1 -0.6,0 -1.1,-0.5 -1.1,-1 0,-0.6 0.2,-1 0.4,-1 0.3,0 0.8,0.4 1.1,1 z m 3.5,2 c -0.8,0.5 -1.7,0.7 -1.9,0.4 -0.3,-0.3 0.1,-0.9 0.9,-1.4 0.8,-0.5 1.7,-0.7 1.9,-0.4 0.3,0.3 -0.1,0.9 -0.9,1.4 z m -7,2.1 c 0,1.4 -1.7,1 -2.3,-0.5 -0.4,-1 -0.1,-1.3 0.9,-0.9 0.7,0.3 1.4,0.9 1.4,1.4 z m -5.5,5.9 c -0.3,0.5 -1,1 -1.6,1 -0.5,0 -0.9,-0.5 -0.9,-1 0,-0.6 0.7,-1 1.6,-1 0.8,0 1.2,0.4 0.9,1 z m -22.8,11.6 c -0.3,0.3 -1.2,0.4 -1.9,0.1 -0.8,-0.3 -0.5,-0.6 0.6,-0.6 1.1,-0.1 1.7,0.2 1.3,0.5 z"
   fill="#000000"
   fill-rule="nonzero"
   opacity="1"
   stroke="none"
   vectornator:layerName="path"
   id="path5" />&#10;<path
   d="m 503.5,422.9 c -5.2,2.4 -9.9,7.4 -12.4,13.2 -2,4.6 -2.1,7.2 -3.1,102.5 -0.5,53.9 -1,108.9 -1,122.4 l -0.1,24.5 8.3,3.7 8.3,3.7 0.6,-22.2 c 0.4,-12.2 0.7,-40.7 0.8,-63.2 0.1,-41.8 0.5,-46.3 4.1,-50.7 2.3,-2.9 4.7,-1.8 7.2,3.3 1.5,3 1.8,10.3 2.4,70.1 0.4,36.8 1,66.8 1.3,66.8 0.3,0 4.6,-1.9 9.4,-4.2 l 8.8,-4.2 -0.6,-3.6 c -0.3,-1.9 -1,-57.9 -1.5,-124.3 -0.8,-97.9 -1.3,-121.4 -2.4,-124.1 -3.4,-8.3 -13.9,-15.6 -22.1,-15.6 -2.2,0 -5.8,0.9 -8,1.9 z m 12.1,15.6 c 1.7,1.7 2.4,3.4 2.2,5.1 -0.4,3.2 -2.2,3.2 -2.6,0 -0.3,-2.5 -3.3,-4.3 -5.2,-3.1 -0.5,0.3 -1,2 -1,3.6 0,4.1 -2.4,3.3 -2.8,-0.8 -0.2,-2.2 0.3,-3.7 1.9,-5.2 3,-2.7 4.4,-2.6 7.5,0.4 z m 1.8,38.6 c 2,2.4 2.6,4.1 2.6,8 0,3.7 -0.4,4.9 -1.5,4.9 -1,0 -1.5,-1 -1.5,-2.9 0,-1.5 -0.5,-4.2 -1.1,-6 -0.9,-2.5 -1.7,-3.1 -3.9,-3.1 -3.3,0 -4,1.4 -4,7.7 0,3.7 -0.3,4.4 -1.7,4.1 -2.1,-0.4 -2.7,-3.6 -1.8,-8.5 1.4,-7.5 8.3,-9.7 12.9,-4.2 z m -2.3,24.9 c 4,2.2 6.8,12 3.4,12 -0.9,0 -1.5,-0.9 -1.5,-2.5 0,-2.4 -3.1,-6.5 -4.8,-6.5 -2,0 -4.3,2.8 -4.5,5.4 -0.4,5.1 -2.7,4.3 -2.7,-0.8 0,-7 4.6,-10.5 10.1,-7.6 z m -1.3,24.2 c 0.7,0.7 1.2,3.6 1.2,6.5 0,5.2 0,5.3 -3,5.3 -3,0 -3,0 -3,-5.8 0,-3.2 0.3,-6.2 0.7,-6.5 1,-1.1 2.8,-0.8 4.1,0.5 z"
   fill="#000000"
   fill-rule="nonzero"
   opacity="1"
   stroke="none"
   vectornator:layerName="path"
   id="path6" />&#10;<path
   d="m 415.5,491.6 c -10.3,3.5 -32.4,14 -40.8,19.4 l -4.8,3.1 7.3,5.6 c 4,3.1 7.8,6 8.5,6.5 0.7,0.6 3.5,-0.6 8,-3.5 8.7,-5.7 15.5,-9.1 26.2,-13.2 l 8.6,-3.3 0.3,-9.1 c 0.3,-10.8 1.1,-10.5 -13.3,-5.5 z"
   fill="#000000"
   fill-rule="nonzero"
   opacity="1"
   stroke="none"
   vectornator:layerName="path"
   id="path7" />&#10;<path
   d="m 594.1,492.2 c 0,2.4 0.4,6.5 0.7,9.2 l 0.7,4.8 6,2.3 c 7.6,2.8 18.9,8.5 28.2,14.1 3.9,2.4 7.4,4.4 7.8,4.4 1.1,0 16.5,-12.1 16.5,-12.9 0,-2.6 -29.4,-17.1 -46.6,-23 -12.5,-4.3 -13.4,-4.2 -13.3,1.1 z"
   fill="#000000"
   fill-rule="nonzero"
   opacity="1"
   stroke="none"
   vectornator:layerName="path"
   id="path8" />&#10;<path
   d="m 478.8,525 c -4.3,1.3 -8.9,5 -10.3,8.4 -1.6,3.8 -4.4,142.2 -2.9,143.4 1.3,1.2 12.4,5.5 12.9,5.1 0.2,-0.2 1,-28.1 1.9,-61.9 0.9,-33.8 1.8,-69.3 2.1,-78.8 0.3,-9.4 0.2,-17.2 -0.2,-17.1 -0.4,0 -2,0.4 -3.5,0.9 z"
   fill="#000000"
   fill-rule="nonzero"
   opacity="1"
   stroke="none"
   vectornator:layerName="path"
   id="path9" />&#10;<path
   d="m 541.7,524.7 c -0.7,1.4 3,159.1 3.8,160.1 0.2,0.2 3.2,-1.2 6.9,-3 l 6.6,-3.2 V 672 c -0.1,-3.6 -0.5,-35.9 -1,-71.8 -0.9,-73.3 -0.3,-67.9 -8.8,-73.3 -4.6,-2.9 -6.7,-3.5 -7.5,-2.2 z"
   fill="#000000"
   fill-rule="nonzero"
   opacity="1"
   stroke="none"
   vectornator:layerName="path"
   id="path10" />&#10;<path
   d="m 320.7,542.7 c -5.5,10.8 -10.3,30.8 -11.9,50 -3,35.9 5,65.3 24.1,89.1 9.4,11.6 34.4,34.2 38,34.2 0.6,0 1.1,0.4 1.1,0.8 0,1 8.7,7.2 10,7.2 0.6,0 1,-0.9 1,-1.9 0,-2.5 1.7,-3.6 3.4,-2.2 0.9,0.7 1.7,0.5 2.9,-0.9 1.9,-2.3 2.2,-4 0.6,-4 -0.6,0 -1.3,0.9 -1.6,2 -0.7,2.5 -1.5,2.5 -3.7,0.1 -2.3,-2.5 -1.2,-4.3 2,-3.5 2.4,0.6 3,-0.1 1.6,-2.3 -0.9,-1.4 -5.2,-0.6 -5.2,0.9 0,0.6 -0.7,0.5 -1.5,-0.2 -1.9,-1.6 -2,-3.4 -0.1,-2.7 0.9,0.4 1.6,-0.2 1.9,-1.5 0.4,-1.5 1.1,-1.9 2.6,-1.5 1.4,0.3 2.1,0 2.1,-0.9 0,-0.8 -0.9,-1.4 -2,-1.4 -1.3,0 -2,-0.7 -2,-1.9 0,-2.2 1.6,-3.6 2.4,-2.2 0.7,1 4.6,0.3 4.6,-0.9 0,-0.4 -1.5,-1 -3.4,-1.2 -2.8,-0.3 -3.6,0 -4,1.5 -0.7,2.6 -2.6,1.2 -2.6,-2 0,-2 0.4,-2.4 2,-2 1.1,0.3 2,0.1 2,-0.4 0,-0.5 -0.6,-0.9 -1.4,-0.9 -2,0 -3.1,-1.9 -1.7,-3.3 0.7,-0.7 1.6,-0.3 3.2,1.7 1.5,1.9 2.4,2.4 3.3,1.6 0.7,-0.5 1.6,-0.7 1.9,-0.3 0.4,0.3 0.7,-0.4 0.7,-1.7 0,-2.2 -0.1,-2.3 -2,-0.5 -1.1,1 -2.3,1.5 -2.7,1.1 -1.3,-1.3 1.4,-4.1 4.1,-4.3 2.1,-0.1 2.6,0.3 2.6,2 0.1,2.2 0.1,2.2 1.6,0.2 0.8,-1.1 1.3,-2.4 1,-3.1 -0.3,-0.7 0.5,-0.9 2,-0.6 1.3,0.2 2.4,1 2.4,1.7 0,0.7 0.9,1.5 2,1.8 1.1,0.3 2,1.4 2,2.4 0,1.1 0.7,2.8 1.6,3.9 1.5,1.8 1.5,1.8 0.9,-0.4 -0.5,-1.6 -0.2,-2.2 0.9,-2.2 0.9,0 1.6,0.5 1.6,1.1 0,1.7 2.8,4 3.5,2.9 0.3,-0.5 0.1,-1 -0.5,-1 -0.6,0 -0.8,-0.5 -0.5,-1 0.3,-0.6 -0.1,-1.3 -0.9,-1.6 -0.9,-0.3 -1.6,-1.3 -1.6,-2.1 0,-0.8 -0.4,-1.2 -0.8,-0.9 -1.2,0.7 -2.9,-0.7 -3.6,-3.1 -0.6,-1.8 -0.4,-2 1.4,-1.6 1.1,0.3 2,1.2 2,2 0,0.8 1.4,1.9 3,2.4 1.8,0.7 3,1.8 3,2.8 0,1.8 1.9,2 5.4,0.6 1,-0.4 2.1,-0.4 2.5,0.1 0.6,0.9 4.7,3.4 5.6,3.4 0.3,0 0.5,-0.7 0.5,-1.5 0,-0.8 0.7,-1.5 1.5,-1.5 0.8,0 1.5,0.4 1.5,1 0,0.5 -0.4,1 -1,1 -0.5,0 -1,0.7 -1,1.5 0,1.7 1.4,1.9 4,0.5 1.3,-0.7 2.1,-0.7 2.5,0 0.3,0.5 0.1,1 -0.4,1 -0.6,0 -1.1,0.7 -1.1,1.5 0,1.8 2.1,2 3.8,0.3 0.9,-0.9 1.2,-0.8 1.2,0.5 0,0.9 -0.7,1.7 -1.5,1.7 -0.8,0 -1.5,0.6 -1.5,1.4 0,2.8 1.9,2.6 5,-0.4 2.6,-2.5 3,-2.7 2.5,-1 -0.5,1.6 -0.2,2 1.5,2 2.6,0 5.5,2.6 4,3.5 -0.7,0.4 -0.7,1.3 0,2.6 1.4,2.5 3.4,2.5 2.7,-0.1 -0.4,-1.4 0.3,-2.3 2.4,-3.4 1.6,-0.8 2.7,-1.1 2.4,-0.6 -0.9,1.4 0.6,3.9 2.1,3.3 0.7,-0.3 1.7,0.2 2,1.1 0.4,1.1 1.3,1.4 3,1 2,-0.5 2.3,-0.3 1.7,1.2 -0.4,1.1 -0.3,1.5 0.4,1.1 0.7,-0.4 1.4,0.5 1.8,2.3 0.8,3.8 2.3,4.7 2.3,1.5 0,-1.4 -0.4,-2.8 -0.9,-3.1 -1.2,-0.7 -1.1,-2.4 0.1,-2.4 0.6,0 1,0.7 1,1.6 0,1 0.6,1.4 1.5,1.1 0.8,-0.4 1.7,-0.1 2.1,0.5 0.4,0.7 0.3,0.8 -0.4,0.4 -0.7,-0.4 -1.2,-0.2 -1.2,0.4 0,3.4 4.5,1.7 26.9,-10.3 8,-4.3 8.3,-4.6 6,-5.6 -1.3,-0.5 -10,-4 -19.4,-7.6 -39.8,-15.6 -73.7,-35.1 -96.1,-55.3 -27.9,-25.1 -40.2,-46.3 -43.9,-75.4 -0.5,-3.8 -1.2,-5.2 -3.8,-7 -1.8,-1.2 -6.9,-5.5 -11.4,-9.5 L 322.1,540 Z M 377,670 c 0,0.5 -0.5,1 -1.1,1 -0.5,0 -0.7,-0.5 -0.4,-1 0.3,-0.6 0.8,-1 1.1,-1 0.2,0 0.4,0.4 0.4,1 z m -4,3.1 c 0,0.5 -0.4,0.9 -1,0.9 -0.5,0 -1,-0.7 -1,-1.6 0,-0.8 0.5,-1.2 1,-0.9 0.6,0.3 1,1 1,1.6 z m -9.4,2.6 c -1,1 -1.9,-0.5 -1,-1.8 0.6,-1.1 0.8,-1.1 1.2,0 0.2,0.7 0.1,1.5 -0.2,1.8 z m 17.9,-1.7 c -0.3,0.5 -1,1 -1.6,1 -0.5,0 -0.9,-0.5 -0.9,-1 0,-0.6 0.7,-1 1.6,-1 0.8,0 1.2,0.4 0.9,1 z m 11.5,1 c 0,0.5 -0.4,1 -1,1 -0.5,0 -1,-0.5 -1,-1 0,-0.6 0.5,-1 1,-1 0.6,0 1,0.4 1,1 z m -16.5,1 c 0.3,0.5 0.1,1 -0.4,1 -0.6,0 -1.1,-0.5 -1.1,-1 0,-0.6 0.2,-1 0.4,-1 0.3,0 0.8,0.4 1.1,1 z m 7.5,1 c 0,0.5 -0.4,1 -1,1 -0.5,0 -1,-0.5 -1,-1 0,-0.6 0.5,-1 1,-1 0.6,0 1,0.4 1,1 z m -17.3,2.2 c -0.3,0.8 -0.6,0.5 -0.6,-0.6 -0.1,-1.1 0.2,-1.7 0.5,-1.3 0.3,0.3 0.4,1.2 0.1,1.9 z M 372,678 c 0,0.5 -0.4,1 -1,1 -0.5,0 -1,-0.5 -1,-1 0,-0.6 0.5,-1 1,-1 0.6,0 1,0.4 1,1 z m 16.6,1.2 c -1,0.6 -2,0.7 -2.4,0.3 -0.9,-0.8 2,-2.5 3.1,-1.8 0.5,0.3 0.2,1 -0.7,1.5 z M 396,679 c 0,0.5 -0.2,1 -0.4,1 -0.3,0 -0.8,-0.5 -1.1,-1 -0.3,-0.6 -0.1,-1 0.4,-1 0.6,0 1.1,0.4 1.1,1 z m -19,1.4 c 0,0.3 -0.4,0.8 -1,1.1 -0.5,0.3 -1,0.1 -1,-0.4 0,-0.6 0.5,-1.1 1,-1.1 0.6,0 1,0.2 1,0.4 z m 7,1.2 c 0,0.8 -0.4,1.2 -1,0.9 -0.5,-0.3 -1,-1 -1,-1.6 0,-0.5 0.5,-0.9 1,-0.9 0.6,0 1,0.7 1,1.6 z m 9,0 c 0,0.8 -0.4,1.2 -1,0.9 -0.5,-0.3 -1,-1 -1,-1.6 0,-0.5 0.5,-0.9 1,-0.9 0.6,0 1,0.7 1,1.6 z m 6,0.4 c 0,0.5 -0.8,1 -1.7,1 -1.5,0 -1.6,-0.2 -0.3,-1 1.9,-1.2 2,-1.2 2,0 z m 8,0.6 c 0,0.8 -0.4,1.2 -1,0.9 -0.5,-0.3 -1,-1 -1,-1.6 0,-0.5 0.5,-0.9 1,-0.9 0.6,0 1,0.7 1,1.6 z m -36,0.4 c 0,0.5 -0.4,1 -1,1 -0.5,0 -1,-0.5 -1,-1 0,-0.6 0.5,-1 1,-1 0.6,0 1,0.4 1,1 z m 10,0 c 0,0.5 -0.4,1 -1,1 -0.5,0 -1,-0.5 -1,-1 0,-0.6 0.5,-1 1,-1 0.6,0 1,0.4 1,1 z m 8.4,0.5 c 0.3,0.8 0.1,1.5 -0.3,1.5 -0.5,0 -1.1,-0.7 -1.5,-1.5 -0.3,-0.8 -0.1,-1.5 0.3,-1.5 0.5,0 1.1,0.7 1.5,1.5 z m -22.7,1.7 c -0.3,0.8 -0.6,0.5 -0.6,-0.6 -0.1,-1.1 0.2,-1.7 0.5,-1.3 0.3,0.3 0.4,1.2 0.1,1.9 z M 403,685 c 0,1.1 -0.4,2 -1,2 -0.5,0 -1,-0.9 -1,-2 0,-1.1 0.5,-2 1,-2 0.6,0 1,0.9 1,2 z m -26,0.5 c 0,0.8 -0.4,1.5 -1,1.5 -0.5,0 -1,-0.7 -1,-1.5 0,-0.8 0.5,-1.5 1,-1.5 0.6,0 1,0.7 1,1.5 z m 16.8,0.3 c 0.2,0.7 -0.3,1.2 -1.2,1.2 -0.9,0 -1.6,-0.7 -1.6,-1.6 0,-1.7 2.2,-1.4 2.8,0.4 z m 17.2,0.3 c 0,0.6 -0.4,0.7 -1,0.4 -0.5,-0.3 -1,-1.1 -1,-1.6 0,-0.6 0.5,-0.7 1,-0.4 0.6,0.3 1,1.1 1,1.6 z m -47.3,1.1 c -0.3,0.8 -0.6,0.5 -0.6,-0.6 -0.1,-1.1 0.2,-1.7 0.5,-1.3 0.3,0.3 0.4,1.2 0.1,1.9 z m 20.3,-0.1 c 0,1.1 -0.4,1.7 -1,1.4 -0.5,-0.3 -1,-1.3 -1,-2.1 0,-0.8 0.5,-1.4 1,-1.4 0.6,0 1,0.9 1,2.1 z m 3,-0.6 c 0,0.8 -0.4,1.5 -1,1.5 -0.5,0 -1,-0.7 -1,-1.5 0,-0.8 0.5,-1.5 1,-1.5 0.6,0 1,0.7 1,1.5 z m -6.2,1.7 c -0.6,1.8 -2.8,2.1 -2.8,0.4 0,-0.9 0.7,-1.6 1.6,-1.6 0.9,0 1.4,0.5 1.2,1.2 z M 371,689 c 0,0.5 -0.4,1 -1,1 -0.5,0 -1,-0.5 -1,-1 0,-0.6 0.5,-1 1,-1 0.6,0 1,0.4 1,1 z m 43,-0.6 c 0,0.3 -0.4,0.8 -1,1.1 -0.5,0.3 -1,0.1 -1,-0.4 0,-0.6 0.5,-1.1 1,-1.1 0.6,0 1,0.2 1,0.4 z m -47,2.1 c 0,0.8 -0.4,1.5 -1,1.5 -0.5,0 -1,-0.7 -1,-1.5 0,-0.8 0.5,-1.5 1,-1.5 0.6,0 1,0.7 1,1.5 z m 9.4,0.6 c -0.3,0.5 -1,0.7 -1.5,0.3 -0.5,-0.3 -0.7,-1 -0.3,-1.5 0.3,-0.5 1,-0.7 1.5,-0.3 0.5,0.3 0.7,1 0.3,1.5 z m 41.6,1.4 c 0,0.8 -0.4,1.5 -1,1.5 -0.5,0 -1,-0.7 -1,-1.5 0,-0.8 0.5,-1.5 1,-1.5 0.6,0 1,0.7 1,1.5 z m 5,-1.1 c 0,0.3 -0.4,0.8 -1,1.1 -0.5,0.3 -1,0.1 -1,-0.4 0,-0.6 0.5,-1.1 1,-1.1 0.6,0 1,0.2 1,0.4 z m -50,1.9 c 0,1.6 -3.7,2 -4.6,0.5 -0.5,-0.7 -0.1,-0.9 0.9,-0.5 0.9,0.3 1.9,0.2 2.2,-0.3 0.9,-1.4 1.5,-1.2 1.5,0.3 z m 6.7,2.4 c -0.3,0.3 -1.1,0.2 -1.7,-0.2 -0.8,-0.5 -0.7,-1.1 0.2,-2.2 1.2,-1.5 1.3,-1.4 1.6,0.1 0.2,1 0.1,2 -0.1,2.3 z M 427,694 c 0,0.5 -0.4,1 -1,1 -0.5,0 -1,-0.5 -1,-1 0,-0.6 0.5,-1 1,-1 0.6,0 1,0.4 1,1 z m -63,1 c 0,0.5 -0.4,1 -1,1 -0.5,0 -1,-0.5 -1,-1 0,-0.6 0.5,-1 1,-1 0.6,0 1,0.4 1,1 z m 12,2.2 c 0,1.6 -0.3,1.9 -1.1,1.1 -0.6,-0.6 -0.8,-1.6 -0.5,-2.2 1.1,-1.7 1.6,-1.3 1.6,1.1 z m -3.1,2.5 c 0.2,0.2 -0.5,0.3 -1.7,0.3 -1.4,0 -2.2,-0.6 -2.2,-1.6 0,-1.4 0.3,-1.5 1.8,-0.3 0.9,0.7 1.9,1.5 2.1,1.6 z M 367,700 c 0,0.5 -0.4,1 -1,1 -0.5,0 -1,-0.5 -1,-1 0,-0.6 0.5,-1 1,-1 0.6,0 1,0.4 1,1 z m 13,0.5 c 0,0.8 -0.7,1.5 -1.5,1.5 -0.8,0 -1.5,-0.7 -1.5,-1.5 0,-0.8 0.7,-1.5 1.5,-1.5 0.8,0 1.5,0.7 1.5,1.5 z m -4.5,3.5 c -0.6,0.9 -0.9,0.9 -1.6,-0.1 -1,-1.7 0,-3.4 1.3,-2.1 0.6,0.6 0.7,1.6 0.3,2.2 z m -3.5,1.2 c 0,0.2 -1.3,0.3 -2.9,0.4 -2.6,0.1 -2.7,0 -1.3,-1.7 1.3,-1.5 1.7,-1.5 2.9,-0.4 0.7,0.8 1.3,1.5 1.3,1.7 z m 11.3,-1.7 c 0.8,1.9 -1.3,3.1 -2.3,1.4 -0.9,-1.4 -0.4,-2.9 1,-2.9 0.4,0 1,0.7 1.3,1.5 z m -4.3,3 c 0,0.8 -0.7,1.5 -1.5,1.5 -0.8,0 -1.5,-0.7 -1.5,-1.5 0,-0.8 0.7,-1.5 1.5,-1.5 0.8,0 1.5,0.7 1.5,1.5 z m -3.2,2.3 c 0.2,0.7 -0.3,1.2 -1.2,1.2 -0.9,0 -1.6,-0.7 -1.6,-1.6 0,-1.7 2.2,-1.4 2.8,0.4 z m -4.2,1.9 c -0.7,0.7 -2.6,-0.7 -2.6,-1.9 0,-0.6 0.6,-0.6 1.5,0.2 0.9,0.7 1.3,1.5 1.1,1.7 z m 8.4,3.9 c 0,0.8 -0.4,1.4 -1,1.4 -0.5,0 -1,-0.5 -1,-1 0,-0.6 -0.7,-1 -1.5,-1 -0.8,0 -1.5,0.5 -1.5,1.1 0,0.5 -0.4,0.7 -1,0.4 -1.6,-1 -1.2,-1.9 1.3,-3.1 2.4,-1.1 4.7,-0.1 4.7,2.2 z m 3,2.3 c 0,1.2 -2,2.5 -2.7,1.8 -0.7,-0.7 0.6,-2.7 1.8,-2.7 0.5,0 0.9,0.4 0.9,0.9 z m -4,1.1 c 0,0.5 -0.4,1 -1,1 -0.5,0 -1,-0.5 -1,-1 0,-0.6 0.5,-1 1,-1 0.6,0 1,0.4 1,1 z"
   fill="#000000"
   fill-rule="nonzero"
   opacity="1"
   stroke="none"
   vectornator:layerName="path"
   id="path11" />&#10;<path
   d="m 696.2,544.4 c -2.4,2.3 -7.2,6.5 -10.6,9.2 l -6.3,4.9 -1.2,8.5 c -1.4,11.1 -5.3,23.6 -10.2,33 -12.3,23.8 -38.8,48.8 -73.9,69.7 -15.8,9.3 -29.4,16.3 -64.1,32.8 -30.1,14.3 -67.4,33.4 -77.2,39.4 -21.5,13.1 -41.1,29.5 -50.7,42.3 -10.7,14.2 -15,25 -15,37.8 0,8.9 1.9,16 6.2,23.3 12.1,20.6 30.4,30.6 80.1,43.8 l 15.9,4.2 3.6,-2.1 c 2.1,-1.1 7.5,-4 12.2,-6.5 4.7,-2.5 8.4,-4.9 8.3,-5.3 -0.1,-0.4 -10.2,-5.1 -22.5,-10.4 -12.2,-5.3 -26.6,-11.7 -31.9,-14.2 -11,-5.2 -30.2,-15.8 -29.7,-16.4 0.2,-0.2 6.9,1 14.9,2.7 7.9,1.6 26.6,5.5 41.4,8.5 14.9,3 34.9,7.3 44.5,9.5 l 17.4,4 10.5,-6.4 c 5.8,-3.5 10.6,-6.8 10.8,-7.3 0.2,-0.6 -2.9,-1.5 -6.9,-2.1 -4,-0.6 -20.6,-3.4 -36.8,-6.2 -78.7,-13.6 -99.1,-17.4 -98.7,-18.5 0.2,-0.5 3.6,-3.6 7.5,-6.9 l 7.2,-6 29.2,2.7 c 16.1,1.4 41,3.5 55.3,4.6 22.7,1.8 55.7,4.8 72.3,6.6 2.8,0.3 5.2,0.9 5.2,1.4 0,1.4 -7.4,10.2 -12.6,15 -14.3,13.3 -27.6,21.5 -67.9,41.6 -17,8.6 -34.5,17.7 -38.8,20.2 -8.3,4.9 -17.8,12.5 -20.4,16.2 -1.6,2.2 -1.6,2.2 2.8,1.6 2.4,-0.3 5.2,-0.7 6.2,-0.8 0.9,-0.1 2,-1.1 2.3,-2.1 0.6,-1.8 0.7,-1.8 2.5,-0.1 1.1,1 1.9,1.2 1.9,0.6 0,-0.7 -0.5,-1.2 -1.1,-1.2 -0.5,0 -0.7,-0.5 -0.3,-1.2 0.5,-0.7 1.1,-0.5 2.1,0.8 1.3,1.8 1.3,1.7 1.1,-0.6 -0.2,-1.6 0.3,-2.5 1.4,-2.8 1.3,-0.3 1.6,0.1 1.2,1.5 -0.4,1.3 -0.3,1.4 0.4,0.5 0.5,-0.8 1.2,-1.3 1.6,-1.3 2.3,0.3 2.6,0 1.7,-1.8 -1.5,-2.7 1.8,-3.9 3.7,-1.4 1.4,1.7 1.4,1.6 0.9,-0.5 -0.5,-1.9 -0.3,-2.1 0.9,-1.1 0.8,0.6 1.7,0.9 2.1,0.5 0.3,-0.3 0.1,-0.6 -0.5,-0.6 -0.7,0 -1.2,-0.5 -1.2,-1.1 0,-0.5 0.5,-0.7 1,-0.4 0.6,0.3 1,-0.2 1,-1.1 0,-1 0.3,-1.5 0.6,-1.1 0.4,0.3 2.2,0 4,-0.8 2,-0.8 3.6,-1 3.9,-0.4 0.8,1.2 2.5,1.2 2.5,-0.2 0,-0.5 -0.4,-0.7 -1,-0.4 -0.5,0.3 -1,0.3 -1,-0.2 0,-0.4 2.1,-1.8 4.6,-3.1 3.7,-1.9 4.5,-2 5,-0.8 0.5,1.2 0.9,1.3 1.9,0.3 0.7,-0.6 1,-1.7 0.8,-2.4 -0.3,-0.8 0.4,-1 2.2,-0.7 2.3,0.4 2.6,0.2 2,-1.7 -0.5,-1.4 -0.3,-1.9 0.3,-1.5 0.6,0.3 1.2,0.3 1.5,-0.1 0.2,-0.5 0.2,-0.2 0.1,0.4 -0.4,1.6 1.8,1.7 3.4,0.1 0.9,-0.9 1.2,-0.9 1.2,0.2 0,0.9 0.4,0.8 1.4,-0.5 0.7,-1 1.2,-2.8 1,-3.9 -0.3,-1.3 0.1,-1 1,0.9 1.3,2.5 1.5,2.6 1.6,0.9 0,-2 0.5,-2.3 5.4,-2.7 1.3,-0.1 2.4,-0.4 2.4,-0.7 -0.2,-2.5 0.3,-5.2 0.9,-4.7 0.3,0.4 1.5,0 2.5,-1 1.7,-1.5 1.8,-1.5 1.9,0.3 0.1,1 0,2.3 -0.1,2.9 -0.1,0.5 0.2,0.6 0.7,0.2 0.4,-0.5 0.8,-2.1 0.8,-3.5 0,-1.5 0.5,-2.7 1.1,-2.7 0.5,0 6.2,-3.1 12.5,-6.8 31.5,-18.6 54.8,-41.6 60,-59.5 1.6,-5.6 2.9,-5.4 1.8,0.4 -4,21.1 -26.9,44 -62.8,62.5 -4.5,2.3 -8.4,4.6 -8.7,5.1 -0.3,0.4 -1,0.6 -1.5,0.3 -0.5,-0.4 -0.9,-0.1 -0.9,0.4 0,1.4 1.7,1.4 2.5,0.1 0.4,-0.6 1.1,-0.8 1.6,-0.5 0.5,0.4 0.9,0.2 0.9,-0.4 0,-0.6 0.7,-0.8 1.6,-0.4 0.9,0.3 1.9,0.2 2.3,-0.3 0.3,-0.5 1.6,-1.5 2.9,-2.2 1.9,-1.1 2.2,-1 2.2,0.5 0,1.5 0.2,1.6 0.9,0.3 0.6,-0.8 0.7,-1.9 0.3,-2.5 -0.3,-0.5 0.2,-0.4 1.1,0.4 1.4,1.1 1.8,1.1 2.3,-0.2 0.3,-0.9 1.2,-1.3 2,-1 0.8,0.3 1.4,0 1.4,-0.7 0,-0.6 0.4,-0.9 0.8,-0.6 0.8,0.5 9.8,-4.3 19.5,-10.2 3.5,-2.3 5,-1.9 2.5,0.6 -0.9,0.9 -0.8,1.5 0.8,2.7 1.1,0.8 1.4,1.4 0.6,1.5 -0.8,0 -1,0.9 -0.7,2.7 0.5,2.4 0.5,2.5 -0.5,1 -0.7,-1 -0.9,-2.4 -0.6,-3.2 0.5,-1.4 -2.2,-3 -3.3,-1.9 -0.3,0.4 0,0.9 0.7,1.1 0.6,0.3 1.2,0.9 1.2,1.4 0,0.6 -0.4,0.7 -1,0.4 -0.5,-0.3 -1,-0.2 -1,0.4 0,0.5 0.5,1.3 1,1.6 0.6,0.3 1,1.1 1,1.8 0,0.8 -0.3,0.8 -1.2,-0.1 -1.5,-1.5 -3.8,-1.6 -3.8,-0.1 0,0.5 0.5,0.7 1,0.4 0.6,-0.3 1,0.1 1,0.9 0,1.9 -0.1,1.9 -3.7,0.6 -2.5,-0.9 -2.6,-0.8 -1,0.4 2.1,1.6 2.2,3 0.2,2.2 -0.8,-0.3 -1.5,-0.1 -1.5,0.4 0,0.6 -1,1 -2.2,1 -1.7,0 -1.9,0.3 -1,1.2 0.8,0.8 1.5,0.8 2.7,-0.2 0.8,-0.7 1.5,-1 1.5,-0.6 0,0.9 20.4,-9.9 27.1,-14.4 10.9,-7.5 20.4,-18.4 24,-27.7 3,-7.9 3.8,-25 1.5,-34.7 -3.3,-13.8 -12.6,-30.3 -23.6,-41.4 -9,-9.1 -21,-18.3 -23.1,-17.7 -1.1,0.4 -1.9,0.2 -1.9,-0.3 0,-0.4 -1.9,-2.1 -4.1,-3.5 l -4.2,-2.8 -23.6,8 c -44.7,15.1 -56.7,19.9 -84.2,33.6 -18.7,9.4 -37.5,20.8 -46.8,28.4 -9.8,8 -21.4,24.2 -23.4,32.6 -0.5,2.1 -0.5,2.2 -1.1,-4.5 0,-0.8 0.5,-2.5 1.3,-3.7 1.6,-2.7 0.4,-3.1 -1.6,-0.6 -0.8,1 -0.6,0.3 0.3,-1.5 1,-1.7 2.1,-3.2 2.5,-3.2 0.4,0 1,-0.7 1.3,-1.6 0.3,-0.8 0.2,-1.2 -0.4,-0.9 -0.6,0.3 -1,0.1 -1,-0.5 0,-0.6 -0.5,-0.8 -1.1,-0.4 -0.8,0.5 -0.7,0.9 0.1,1.4 0.8,0.5 0.3,0.7 -1.3,0.7 -2.3,-0.2 -2.4,-0.4 -1.1,-1.8 0.8,-0.9 1.1,-1.9 0.7,-2.4 -0.5,-0.4 0,-0.5 1,-0.2 1.2,0.5 1.7,0.1 1.7,-1.3 0,-1 0.5,-2.2 1.2,-2.6 0.7,-0.5 0.9,-0.2 0.6,0.7 -0.3,0.8 -0.1,2.3 0.4,3.4 0.8,1.9 0.8,1.9 0.4,-0.1 -0.2,-1.2 0,-2.8 0.5,-3.5 0.4,-0.7 0.3,-2.2 -0.2,-3.3 -1,-2 -0.9,-2 0.4,-0.3 1.7,2.1 3.1,0.9 1.6,-1.3 -1.8,-3 -0.9,-4.6 1.1,-2 2.1,2.7 2.6,1.6 1,-2.4 -0.5,-1.5 -0.6,-2.6 0,-2.6 0.5,0 1.2,0.9 1.5,2 0.3,1.1 1,2 1.5,2 1,0 0,-4.3 -1.2,-5.1 -0.6,-0.3 -0.3,-0.9 0.6,-1.2 1.1,-0.5 1.6,-0.1 1.6,1.3 0,1.1 0.5,2 1.1,2 0.7,0 0.9,-1 0.7,-2.5 -0.3,-1.4 -0.1,-2.5 0.4,-2.5 0.6,0 0.8,-1.6 0.4,-3.8 -0.6,-3.4 -0.5,-3.6 0.9,-1.8 0.8,1.1 1.5,2.6 1.5,3.3 0,0.7 0.6,1.3 1.4,1.3 0.8,0 1.7,0.6 2,1.2 0.3,0.7 0.3,0.3 0.1,-0.8 -0.4,-1.6 0,-2.3 1.6,-2.7 1.2,-0.3 1.8,-1 1.4,-1.6 -0.3,-0.6 -1,-0.9 -1.5,-0.6 -0.4,0.3 -1,-0.5 -1.4,-1.8 -0.8,-3.1 -0.7,-3.7 0.5,-3.7 0.5,0 0.8,0.4 0.4,0.9 -0.3,0.5 0,1.3 0.6,1.6 1.7,1.1 2.2,-0.1 0.9,-2.4 -0.9,-1.7 -0.8,-2.1 0.5,-2.1 0.9,0 1.4,0.4 1,0.9 -0.3,0.5 0,1.3 0.6,1.6 1.6,1.1 2.2,-0.1 1,-2.3 -1.1,-2.1 -0.4,-6.5 1.1,-5.6 0.5,0.3 0.4,1.2 -0.3,2 -0.9,1.1 -0.9,1.4 0,1.4 0.7,0 1,0.4 0.7,0.8 -0.2,0.4 0,1.4 0.5,2.2 0.6,1 0.8,-0.1 0.6,-3.7 -0.2,-2.8 0.1,-4.9 0.5,-4.7 0.4,0.3 0.8,1.2 0.8,2 0,0.8 0.5,1.4 1.1,1.4 0.5,0 0.7,-0.4 0.4,-1 -0.3,-0.5 -0.2,-1 0.4,-1 0.5,0 1.4,0.8 2,1.7 0.5,1 1.3,1.4 1.8,0.9 0.4,-0.5 0.2,-1.1 -0.4,-1.3 -0.7,-0.3 -1.3,-1.4 -1.3,-2.6 0,-2.1 0.1,-2.1 2,0.3 2,2.5 2.8,1.8 1.1,-1 -0.6,-0.8 -0.7,-1.8 -0.4,-2.3 0.3,-0.5 0.9,-0.3 1.4,0.4 0.7,1.1 0.9,1 0.9,-0.4 0,-1.4 0.5,-1.7 2.2,-1.2 1.6,0.6 2,0.4 1.5,-0.8 -0.8,-2 0.3,-2.9 2,-1.6 1,0.9 1.3,0.8 1.3,-0.5 0,-0.9 0.6,-1.6 1.4,-1.6 0.8,0 1.6,-0.3 1.8,-0.8 0.4,-0.9 5.7,-4.1 8.1,-4.9 1.1,-0.3 1.7,-1.6 1.7,-3.5 0,-1.8 0.4,-2.7 1,-2.3 0.6,0.4 0.8,1.5 0.5,2.6 -0.5,1.4 -0.3,1.7 1,1.3 0.9,-0.4 1.4,-1.2 1.1,-1.9 -0.5,-1.3 1.2,-3.5 2.6,-3.5 0.4,0 0.8,0.5 0.8,1.1 0,0.5 -0.4,0.8 -0.8,0.5 -0.5,-0.3 -0.9,0.2 -0.9,1 0,0.9 0.6,1.3 1.4,0.9 0.8,-0.3 1.7,-0.5 1.9,-0.5 0.2,0 0.2,-1.1 -0.2,-2.5 -0.5,-1.9 -0.2,-2.5 1.1,-2.5 1.2,0 1.5,0.5 1.1,1.6 -0.4,1 -0.1,1.4 0.6,1.1 0.8,-0.2 1.2,-1.6 1,-3.2 -0.4,-2.6 -0.2,-2.7 1.2,-1.6 0.9,0.7 1.3,1.7 1,2.2 -0.8,1.4 0.3,1.1 3.7,-1 1.8,-1.1 2.6,-2.1 2,-2.6 -0.6,-0.3 -0.9,-1.1 -0.6,-1.6 0.9,-1.4 2.5,-1.1 2.5,0.6 0,1.6 1.2,2 2.3,0.8 0.4,-0.3 0.2,-1.2 -0.4,-2 -0.9,-1 -0.8,-1.3 0.4,-1.3 0.8,0 1.8,0.8 2.1,1.7 0.5,1.2 1,1.3 1.8,0.5 0.8,-0.8 0.8,-1.5 0,-2.5 -0.7,-0.8 -0.9,-1.7 -0.5,-2 1.2,-1.2 2.1,-0.7 2.6,1.4 0.4,1.3 1,1.8 1.7,1.4 0.9,-0.6 0.9,-1 -0.1,-1.6 -1.1,-0.7 -0.9,-1.3 1.1,-2.9 3.2,-2.5 3.9,-2.5 4.9,0.2 0.6,1.6 1,1.8 1.6,0.9 0.4,-0.8 0.3,-1.6 -0.3,-2 -0.6,-0.4 -0.7,-1.2 -0.3,-2 1,-1.6 3.1,-0.6 3.1,1.5 0,0.8 0.5,1.4 1.1,1.4 0.7,0 0.8,-1.1 0.4,-3 -0.5,-2.5 -0.4,-2.9 0.9,-2.4 0.9,0.3 1.4,1 1.1,1.4 -0.6,1 1.4,2.5 2.2,1.6 0.3,-0.3 0,-1.2 -0.6,-2 -0.7,-0.8 -0.9,-2 -0.5,-2.7 0.5,-0.8 1.2,-0.4 2.5,1.2 1,1.3 2.1,2.1 2.5,1.7 0.4,-0.4 0.1,-1.4 -0.5,-2.2 -1.3,-1.6 -0.6,-4 0.9,-3.1 0.5,0.3 1.3,-0.2 1.8,-1.1 0.7,-1.3 1.1,-1.2 2.6,1.1 0.9,1.4 2.1,2.3 2.6,2 1.5,-0.9 1.2,-2.5 -0.5,-2.5 -1.7,0 -2,-1.6 -0.5,-2.5 0.5,-0.3 2,0.5 3.2,1.7 2,2 2.3,2.1 2.6,0.5 0.2,-1 1.3,-1.7 2.7,-1.7 1.7,0 2.3,-0.4 1.9,-1.5 -0.3,-0.8 -0.9,-1.3 -1.2,-1.2 -0.4,0.1 -0.8,-0.3 -0.9,-0.8 -0.2,-1.3 3,-0.7 3.8,0.7 0.9,1.4 2.9,0.1 2.9,-1.7 0,-0.9 -0.6,-1.2 -1.5,-0.9 -0.8,0.4 -1.5,0.1 -1.5,-0.5 0,-1.6 2.5,-1.3 4,0.4 0.7,0.8 1.6,1.5 2.1,1.5 0.5,0 0.9,-0.7 0.9,-1.5 0,-0.8 -0.4,-1.5 -1,-1.5 -0.5,0 -1,-0.8 -1,-1.8 0.1,-1.6 0.1,-1.6 1.4,0 0.7,1 2,1.8 2.8,1.8 0.8,0 1.9,0.5 2.5,1.1 0.6,0.6 1.7,0.9 2.5,0.6 0.9,-0.4 0.5,-0.8 -0.9,-1.2 -2.8,-0.9 -3,-2.5 -0.3,-2.5 1.2,0 2,-0.7 2,-1.6 0,-1 0.6,-1.4 1.5,-1.1 0.8,0.4 1.7,0.2 2,-0.4 0.4,-0.5 1.4,0 2.4,1.2 1.1,1.3 2.3,1.9 3,1.5 0.9,-0.6 0.8,-1.3 -0.5,-2.7 -0.9,-1.1 -1.4,-2.2 -1.1,-2.6 0.4,-0.3 0.2,-1.2 -0.4,-2 -0.9,-1 -0.8,-1.3 0.5,-1.3 0.9,0 1.6,0.8 1.6,1.9 0,1 0.9,2.1 2,2.4 2.5,0.7 3.4,-0.7 1.5,-2.3 -0.8,-0.7 -1.5,-1.9 -1.5,-2.7 0,-1.3 0.3,-1.3 1.5,-0.3 1.2,1 1.6,0.9 2.1,-0.4 1,-2.6 2.2,-1.8 1.6,1 -0.6,3.4 2,2.8 2.8,-0.6 0.3,-1.3 1.1,-2.5 1.8,-2.8 0.7,-0.2 1,0.2 0.6,1.2 -0.4,1.1 -0.1,1.6 1,1.6 1,0 1.6,-0.9 1.6,-2.4 0,-1.4 0.5,-2.8 1,-3.1 0.6,-0.3 1,0.3 1,1.5 0,1.3 0.5,2 1.3,1.7 0.6,-0.2 1.1,-1.1 0.9,-2.1 -0.3,-1.7 1.3,-2.2 2.2,-0.7 0.4,0.5 1.4,0.8 2.4,0.6 0.9,-0.2 2,-0.4 2.5,-0.4 0.4,-0.1 0.7,-0.6 0.7,-1.2 0,-0.6 -0.8,-0.8 -1.9,-0.4 -2.4,0.7 -3,-0.3 -2,-3.5 0.7,-2.4 0.7,-2.4 0.8,-0.3 0.1,2.3 3.1,3.4 3.1,1.2 0,-0.6 0.9,-0.8 2.2,-0.4 1.6,0.6 2,0.4 1.5,-0.9 -0.7,-1.8 0.8,-3.2 1.8,-1.6 1.1,1.8 2.4,1 2.7,-1.8 0.2,-1.5 0.9,-2.8 1.6,-2.8 0.6,-0.1 1.7,-0.2 2.2,-0.3 0.6,0 1,-0.8 1,-1.6 0,-0.8 0.4,-1.5 1,-1.5 0.5,0 0.9,1 0.7,2.2 -0.1,1.4 0.4,2.3 1.3,2.4 3.9,0.3 4.1,0.5 3.5,2.3 -0.3,1.1 -0.1,2.2 0.5,2.6 0.5,0.3 1.1,-0.2 1.1,-1.2 0.1,-1 0.3,-2.5 0.4,-3.3 0.1,-0.8 0.3,-2.7 0.4,-4.2 0.2,-4.2 2.7,-2.4 2.7,1.9 -0.1,2.2 0.4,3.8 1.3,4.1 1,0.3 1.2,-0.3 0.6,-2.7 -0.5,-2.4 -0.3,-3.1 0.9,-3.1 0.9,0 1.6,0.6 1.6,1.4 0,2 1.9,3.1 3.3,1.7 0.7,-0.7 0.6,-1.2 -0.6,-1.7 -2.3,-0.8 -2.1,-2.1 0.2,-2.7 1.2,-0.3 2.2,0.1 2.5,0.9 0.6,1.5 4.6,2 4.6,0.5 0,-0.5 -0.9,-1.1 -2.1,-1.4 -1.9,-0.5 -2.4,-3 -0.6,-2.8 0.4,0.1 1.6,0.1 2.8,0.1 1.5,0 1.9,0.5 1.5,1.5 -0.3,0.9 0,1.5 1,1.5 1.1,0 1.3,-0.6 0.9,-2 -0.3,-1.1 -0.4,-2.4 0,-2.9 0.9,-1.6 3.5,0 3.5,2.1 0,1.7 0.2,1.8 1.5,0.8 1.2,-1 1.9,-1 2.7,-0.2 1.5,1.5 0.2,4.4 -1.8,4 -0.9,-0.2 -1.9,0.2 -2.1,0.9 -0.3,0.8 0.6,1.1 2.4,0.9 1.6,-0.2 2.9,-1 3.1,-2 0.4,-2.1 2.8,-2.1 4,0 0.7,1.2 1.1,1.3 1.6,0.5 0.4,-0.7 0.2,-1.8 -0.4,-2.6 -1,-1.2 -0.9,-1.5 0.9,-1.5 1.2,0 2.4,0.7 2.7,1.5 0.9,2.2 2.6,0.7 1.9,-1.6 -0.5,-1.5 -0.1,-1.9 1.4,-1.9 1.9,0 2.5,0.8 1.9,2.7 -0.2,0.5 -0.6,0.7 -1,0.6 -0.5,-0.2 -0.8,0.6 -0.8,1.7 0,1.3 0.5,1.8 1.5,1.4 0.9,-0.4 1.5,0 1.5,0.8 0,2.6 -1.3,2.9 -3.7,0.6 -2.4,-2.3 -4,-1.9 -3,0.6 0.4,0.9 1.3,1.3 2.2,1 1,-0.4 1.5,0 1.5,1 0,0.9 0.7,1.6 1.5,1.6 0.8,0 1.5,0.7 1.5,1.5 0,2 -1,1.9 -3.6,-0.6 -2.7,-2.5 -5,-1.8 -3.2,1 0.6,1.1 1.8,1.7 2.5,1.4 0.7,-0.3 1.3,0.2 1.3,1.1 0,1 -0.8,1.6 -2.1,1.6 -1.2,0 -1.9,0.5 -1.6,1.2 0.2,0.7 1,1.3 1.7,1.3 0.7,0 1.5,0.6 1.8,1.4 0.3,1 0,1.2 -1.2,0.8 -0.9,-0.4 -1.6,-0.3 -1.6,0.1 -0.1,0.4 -0.5,2.6 -0.9,4.9 -0.9,4.5 0.6,6.4 3.1,4 0.7,-0.7 2.1,-1.6 3.2,-2 4.5,-1.7 24.9,-18.5 34.4,-28.1 19.2,-19.8 28.6,-38.7 32.9,-66.1 1.8,-11.9 1.2,-39.8 -1.1,-51 -2.7,-13.1 -10.5,-35.6 -12.4,-35.5 -0.4,0.1 -2.6,2 -5,4.4 z M 645,667 c 0,0.5 -0.4,1 -1,1 -0.5,0 -1,-0.5 -1,-1 0,-0.6 0.5,-1 1,-1 0.6,0 1,0.4 1,1 z m 20,1 c 0,0.5 -0.5,1 -1.1,1 -0.5,0 -0.7,-0.5 -0.4,-1 0.3,-0.6 0.8,-1 1.1,-1 0.2,0 0.4,0.4 0.4,1 z m -14,1.5 c 0,0.8 -0.4,1.5 -1,1.5 -0.5,0 -1,-0.7 -1,-1.5 0,-0.8 0.5,-1.5 1,-1.5 0.6,0 1,0.7 1,1.5 z m -9,3.6 c 0,1.1 -0.4,1.7 -1,1.4 -0.5,-0.3 -1,-1.3 -1,-2.1 0,-0.8 0.5,-1.4 1,-1.4 0.6,0 1,0.9 1,2.1 z m -5,3 c 0,1.1 -0.4,1.7 -1,1.4 -0.5,-0.3 -1,-1.3 -1,-2.1 0,-0.8 0.5,-1.4 1,-1.4 0.6,0 1,0.9 1,2.1 z m 9.7,0.5 c -0.9,0.9 -2.8,-0.6 -2.1,-1.8 0.4,-0.6 1,-0.6 1.7,0.1 0.6,0.6 0.8,1.3 0.4,1.7 z m -15.5,1.6 c -1.5,1.5 -2.6,0.4 -1.8,-1.8 0.5,-1.3 0.9,-1.5 1.8,-0.6 0.9,0.9 0.9,1.5 0,2.4 z m 24.8,-2.8 c 0,0.3 -0.4,0.8 -1,1.1 -0.5,0.3 -1,0.1 -1,-0.4 0,-0.6 0.5,-1.1 1,-1.1 0.6,0 1,0.2 1,0.4 z m 6,0.6 c 0,0.5 -0.4,1 -1,1 -0.5,0 -1,-0.5 -1,-1 0,-0.6 0.5,-1 1,-1 0.6,0 1,0.4 1,1 z m -11.3,2.6 c -0.9,0.9 -2.8,-0.6 -2.1,-1.8 0.4,-0.6 1,-0.6 1.7,0.1 0.6,0.6 0.8,1.3 0.4,1.7 z m -8.7,-0.1 c 0,0.8 -0.7,1.5 -1.5,1.5 -1.6,0 -2,-1.2 -0.8,-2.3 1.1,-1.2 2.3,-0.8 2.3,0.8 z m 17,-0.1 c 0,0.3 -0.4,0.8 -1,1.1 -0.5,0.3 -1,0.1 -1,-0.4 0,-0.6 0.5,-1.1 1,-1.1 0.6,0 1,0.2 1,0.4 z m 6.5,0.6 c 0.3,0.5 0.1,1 -0.4,1 -0.6,0 -1.1,-0.5 -1.1,-1 0,-0.6 0.2,-1 0.4,-1 0.3,0 0.8,0.4 1.1,1 z m -39.5,1.5 c 0,0.8 -0.4,1.5 -1,1.5 -0.5,0 -1,-0.7 -1,-1.5 0,-0.8 0.5,-1.5 1,-1.5 0.6,0 1,0.7 1,1.5 z m 11,1.2 c 0,2 -2.4,1.1 -2.8,-1 -0.2,-1.2 0.1,-1.5 1.2,-1.1 0.9,0.3 1.6,1.3 1.6,2.1 z m 17,-1.1 c 0,0.8 -0.4,1.2 -1,0.9 -0.5,-0.3 -1,-1 -1,-1.6 0,-0.5 0.5,-0.9 1,-0.9 0.6,0 1,0.7 1,1.6 z m -7.8,0.9 c 0,0.5 -0.5,1.1 -1.1,1.3 -0.6,0.2 -1.1,-0.4 -1.1,-1.3 0,-0.9 0.5,-1.5 1.1,-1.3 0.6,0.2 1.1,0.8 1.1,1.3 z M 621,683 c 0,0.5 -0.7,1 -1.6,1 -0.8,0 -1.2,-0.5 -0.9,-1 0.3,-0.6 1,-1 1.6,-1 0.5,0 0.9,0.4 0.9,1 z m 11,0.6 c 0,0.9 -0.7,1.4 -1.7,1.2 -2.5,-0.5 -2.8,-2.8 -0.4,-2.8 1.2,0 2.1,0.6 2.1,1.6 z m 18.7,1 c -0.9,0.9 -2.8,-0.6 -2.1,-1.8 0.4,-0.6 1,-0.6 1.7,0.1 0.6,0.6 0.8,1.3 0.4,1.7 z m -8.6,-0.1 c -0.1,1.5 -2.4,1.2 -2.9,-0.3 -0.3,-0.9 0.2,-1.3 1.2,-1 1,0.1 1.7,0.7 1.7,1.3 z m 16.4,-0.5 c 0.3,0.5 -0.1,1 -0.9,1 -0.9,0 -1.6,-0.5 -1.6,-1 0,-0.6 0.4,-1 0.9,-1 0.6,0 1.3,0.4 1.6,1 z m -31.5,2 c 0,0.5 -0.5,1.2 -1.1,1.6 -1.4,0.8 -3.3,-1.1 -2.5,-2.5 0.7,-1.1 3.6,-0.4 3.6,0.9 z m 39,-1.6 c 0,0.3 -0.4,0.8 -1,1.1 -0.5,0.3 -1,0.1 -1,-0.4 0,-0.6 0.5,-1.1 1,-1.1 0.6,0 1,0.2 1,0.4 z m -50,1 c 0,0.3 -0.4,0.8 -1,1.1 -0.5,0.3 -1,0.1 -1,-0.4 0,-0.6 0.5,-1.1 1,-1.1 0.6,0 1,0.2 1,0.4 z m 21,1.1 c 0,0.8 -0.6,1.5 -1.4,1.5 -1.7,0 -2.8,-1.4 -1.9,-2.4 1.2,-1.2 3.3,-0.6 3.3,0.9 z m 10,0.5 c 0,0.4 -0.7,1 -1.5,1.4 -1,0.4 -1.5,-0.1 -1.5,-1.4 0,-1.3 0.5,-1.8 1.5,-1.4 0.8,0.4 1.5,1 1.5,1.4 z m -25,2.1 c 0,1.2 -2.1,1.1 -4,-0.1 -1.3,-0.9 -1.3,-1.1 0,-1.9 1.5,-1 4,0.3 4,2 z m 33,-2.1 c 0,0.5 -0.4,1 -1,1 -0.5,0 -1,-0.5 -1,-1 0,-0.6 0.5,-1 1,-1 0.6,0 1,0.4 1,1 z m -41,2 c 1.3,2.4 0.2,5 -1.1,2.9 -0.9,-1.5 -1.2,-4.9 -0.4,-4.9 0.2,0 0.9,0.9 1.5,2 z m 17.6,-0.9 c 0.3,0.6 0.1,1.6 -0.4,2.1 -1.3,1.3 -4.5,-0.8 -3.6,-2.3 0.7,-1.2 3.1,-1.1 4,0.2 z M 662,688 c 0,0.5 -0.4,1 -1,1 -0.5,0 -1,-0.5 -1,-1 0,-0.6 0.5,-1 1,-1 0.6,0 1,0.4 1,1 z m -20,1.5 c 0,0.8 -0.6,1.5 -1.4,1.5 -1.7,0 -2.8,-1.4 -1.9,-2.4 1.2,-1.2 3.3,-0.6 3.3,0.9 z m 9,0 c 0,0.8 -0.4,1.5 -1,1.5 -0.5,0 -1,-0.7 -1,-1.5 0,-0.8 0.5,-1.5 1,-1.5 0.6,0 1,0.7 1,1.5 z m 7,1.1 c 0,0.8 -0.5,1.2 -1,0.9 -0.6,-0.4 -0.8,-1.1 -0.5,-1.6 0.9,-1.4 1.5,-1.1 1.5,0.7 z m -48.5,1.4 c 0,0.7 -0.6,1.5 -1.2,1.7 -0.8,0.3 -1.3,-0.4 -1.3,-1.7 0,-1.3 0.5,-2 1.3,-1.8 0.6,0.3 1.2,1.1 1.2,1.8 z m 27.5,-0.7 c 0,1.9 -1,2.7 -2.6,2 -2.1,-0.8 -1.7,-3.3 0.6,-3.3 1.1,0 2,0.6 2,1.3 z m 17.4,1.8 c -0.3,0.5 -1,0.7 -1.5,0.3 -0.5,-0.3 -0.7,-1 -0.3,-1.5 0.3,-0.5 1,-0.7 1.5,-0.3 0.5,0.3 0.7,1 0.3,1.5 z m -54.7,-0.5 c -0.3,0.3 -1.2,0.4 -1.9,0.1 -0.8,-0.3 -0.5,-0.6 0.6,-0.6 1.1,-0.1 1.7,0.2 1.3,0.5 z M 661,694 c 0,0.5 -0.5,1 -1.1,1 -0.5,0 -0.7,-0.5 -0.4,-1 0.3,-0.6 0.8,-1 1.1,-1 0.2,0 0.4,0.4 0.4,1 z m -61.3,3.7 c -0.3,0.3 -1.1,0.2 -1.7,-0.2 -0.8,-0.5 -0.7,-1.1 0.2,-2.2 1.2,-1.5 1.3,-1.4 1.6,0.1 0.2,1 0.1,2 -0.1,2.3 z m 51.5,-2.2 c 0,0.5 -0.5,1.1 -1.1,1.3 -0.6,0.2 -1.1,-0.4 -1.1,-1.3 0,-0.9 0.5,-1.5 1.1,-1.3 0.6,0.2 1.1,0.8 1.1,1.3 z m 5,1.9 c 0.4,1.9 0.1,2.2 -1.4,1.8 -2.1,-0.5 -2.3,-1.3 -0.6,-3 1.6,-1.6 1.5,-1.6 2,1.2 z M 669,697 c 0,0.5 -0.4,1 -1,1 -0.5,0 -1,-0.5 -1,-1 0,-0.6 0.5,-1 1,-1 0.6,0 1,0.4 1,1 z m -7,1 c 0,0.5 -0.4,1 -1,1 -0.5,0 -1,-0.5 -1,-1 0,-0.6 0.5,-1 1,-1 0.6,0 1,0.4 1,1 z m -10,3.6 c 0,1.6 -1.6,1.9 -2.5,0.4 -0.8,-1.3 0.4,-3.2 1.6,-2.5 0.5,0.4 0.9,1.3 0.9,2.1 z m 13,-0.6 c 0,0.5 -0.2,1 -0.4,1 -0.3,0 -0.8,-0.5 -1.1,-1 -0.3,-0.6 -0.1,-1 0.4,-1 0.6,0 1.1,0.4 1.1,1 z m -9,3.1 c 0,1.1 -0.4,1.7 -1,1.4 -0.5,-0.3 -1,-1.3 -1,-2.1 0,-0.8 0.5,-1.4 1,-1.4 0.6,0 1,0.9 1,2.1 z m 5.5,-1.1 c -0.3,0.5 -1,1 -1.6,1 -0.5,0 -0.9,-0.5 -0.9,-1 0,-0.6 0.7,-1 1.6,-1 0.8,0 1.2,0.4 0.9,1 z m -87,2.9 c 0.3,0.5 0.1,1.2 -0.5,1.6 -0.5,0.3 -1,-0.1 -1,-0.9 0,-1.8 0.6,-2.1 1.5,-0.7 z m 77.6,2.4 c -1.3,1.3 -3.1,0 -2.4,-1.9 0.4,-1.1 0.8,-1.2 2,-0.3 0.9,0.8 1,1.6 0.4,2.2 z m 3.9,1.7 c 0,1.1 -0.4,2 -1,2 -0.5,0 -1,-0.9 -1,-2 0,-1.1 0.5,-2 1,-2 0.6,0 1,0.9 1,2 z m -8,0.5 c 0,0.8 -0.4,1.5 -1,1.5 -0.5,0 -1,-0.7 -1,-1.5 0,-0.8 0.5,-1.5 1,-1.5 0.6,0 1,0.7 1,1.5 z m 3.2,5.7 c -1.3,1.3 -2.4,-0.5 -1.6,-2.7 0.7,-1.6 0.8,-1.6 1.7,0 0.6,1.1 0.6,2 -0.1,2.7 z m -3.8,0.4 c 0.3,0.8 0.2,1.2 -0.4,0.9 -0.6,-0.3 -1,-1 -1,-1.6 0,-1.4 0.7,-1.1 1.4,0.7 z m -2.3,1.7 c -0.1,1.2 -1.5,0.9 -1.9,-0.4 -0.3,-0.6 0.1,-1 0.8,-0.8 0.6,0.3 1.1,0.8 1.1,1.2 z m -95.1,0.1 c 0,0.3 -0.4,0.8 -1,1.1 -0.5,0.3 -1,0.1 -1,-0.4 0,-0.6 0.5,-1.1 1,-1.1 0.6,0 1,0.2 1,0.4 z m -9,4.6 c 0,0.5 -0.4,1 -1,1 -0.5,0 -1,-0.5 -1,-1 0,-0.6 0.5,-1 1,-1 0.6,0 1,0.4 1,1 z m -17,8.8 c 0,1.3 -1.2,2.2 -2.2,1.6 -1,-0.6 -0.1,-2.4 1.3,-2.4 0.5,0 0.9,0.4 0.9,0.8 z m -46.2,22.3 c -0.2,0.6 -0.8,1 -1.3,1 -0.5,0 -1.1,-0.4 -1.3,-1 -0.2,-0.6 0.4,-1.1 1.3,-1.1 0.9,0 1.5,0.5 1.3,1.1 z m 103.1,6.4 4.4,3.5 h -14.8 c -8.2,0 -14.5,-0.3 -14.1,-0.7 0.8,-0.9 16.6,-6.1 18.6,-6.2 0.8,-0.1 3.5,1.5 5.9,3.4 z m -122.1,3.4 c 0.3,0.8 -0.1,1.2 -0.9,0.9 -0.7,-0.2 -1.5,-1 -1.7,-1.7 -0.3,-0.8 0.1,-1.2 0.9,-0.9 0.7,0.2 1.5,1 1.7,1.7 z m -2.8,1.5 c 0,1.1 -1.9,1.5 -2.5,0.6 -0.3,-0.5 0.1,-1 0.9,-1 0.9,0 1.6,0.2 1.6,0.4 z m -3,2.2 c 0,0.2 -0.7,0.4 -1.5,0.4 -0.8,0 -1.5,-0.4 -1.5,-1 0,-0.5 0.7,-0.7 1.5,-0.4 0.8,0.4 1.5,0.8 1.5,1 z m -4.5,2.2 c -0.3,0.3 -1.1,0 -1.8,-0.7 -0.9,-1 -0.8,-1.1 0.6,-0.5 1,0.3 1.5,0.9 1.2,1.2 z m -3,1.2 c 0.3,0.5 -0.1,1 -0.9,1 -0.9,0 -1.6,-0.5 -1.6,-1 0,-0.6 0.4,-1 0.9,-1 0.6,0 1.3,0.4 1.6,1 z m 107.8,9 c 47.5,3.2 51.9,3.7 53.9,6.1 2.9,3.5 3.7,17.4 1.1,20 -0.4,0.4 -15.2,-0.3 -32.8,-1.6 -17.6,-1.3 -45.7,-3.3 -62.5,-4.5 -16.8,-1.2 -34.5,-2.4 -39.5,-2.8 l -9,-0.7 14,-5.9 c 26.5,-11.2 30.4,-12.5 37.8,-12.6 3.7,0 20.3,0.9 37,2 z M 421,796.6 c 0,2.8 -1.7,1.3 -2.8,-2.4 l -1.1,-3.7 1.9,2.4 c 1.1,1.3 2,2.9 2,3.7 z m -7,1.9 c 0,0.8 -0.2,1.5 -0.4,1.5 -0.2,0 -0.6,-0.7 -1,-1.5 -0.3,-0.8 -0.1,-1.5 0.4,-1.5 0.6,0 1,0.7 1,1.5 z m 193,54.9 c 0,1.1 -1.9,1.5 -2.5,0.6 -0.3,-0.5 0.1,-1 0.9,-1 0.9,0 1.6,0.2 1.6,0.4 z m -6,4 c 0,0.2 -0.7,0.7 -1.6,1 -0.8,0.3 -1.2,0.2 -0.9,-0.4 0.6,-1 2.5,-1.4 2.5,-0.6 z m -4.8,3.8 c -0.7,0.7 -1.2,0.8 -1.2,0.2 0,-1.4 1.2,-2.6 1.9,-1.9 0.2,0.3 -0.1,1.1 -0.7,1.7 z m 4.2,3.4 c 0.3,0.8 0.2,1.2 -0.4,0.9 -0.6,-0.3 -1,-1 -1,-1.6 0,-1.4 0.7,-1.1 1.4,0.7 z M 597,865 c 0.8,0.5 1.2,1.1 0.9,1.4 -0.3,0.3 -1.4,-0.1 -2.5,-0.9 -2.1,-1.6 -0.8,-2 1.6,-0.5 z m 1,3.4 c 0,0.3 -0.4,0.8 -1,1.1 -0.5,0.3 -1,0.1 -1,-0.4 0,-0.6 0.5,-1.1 1,-1.1 0.6,0 1,0.2 1,0.4 z m -59.6,16.4 c 0.3,0.5 -0.1,0.9 -0.9,0.9 -0.8,0 -1.2,-0.4 -0.9,-0.9 0.3,-0.4 0.7,-0.8 0.9,-0.8 0.2,0 0.6,0.4 0.9,0.8 z m -52.6,27.7 c -0.3,0.3 -0.9,-0.2 -1.2,-1.2 -0.6,-1.4 -0.5,-1.5 0.5,-0.6 0.7,0.7 1,1.5 0.7,1.8 z"
   fill="#000000"
   fill-rule="nonzero"
   opacity="1"
   stroke="none"
   vectornator:layerName="path"
   id="path12" />&#10;<path
   d="m 457.6,544 c -5,3.2 -6.6,7 -7.1,16.2 -0.3,4.5 -0.9,23.4 -1.5,41.8 -0.5,18.4 -1.3,40.7 -1.6,49.5 l -0.6,16.1 6.1,3 c 3.4,1.7 6.3,2.8 6.5,2.5 0.2,-0.3 0.4,-10.7 0.5,-23.1 0.1,-12.4 0.6,-37.8 1.1,-56.5 1.2,-41.9 1.2,-51.5 0.3,-51.4 -0.5,0 -2.1,0.9 -3.7,1.9 z"
   fill="#000000"
   fill-rule="nonzero"
   opacity="1"
   stroke="none"
   vectornator:layerName="path"
   id="path13" />&#10;<path
   d="m 562.3,559.7 c 0.4,9.8 1,39.5 1.4,66.1 0.3,26.5 0.9,48.5 1.3,48.7 0.4,0.2 3,-0.8 5.9,-2.3 l 5.2,-2.7 -0.6,-41.5 c -0.4,-22.8 -1,-49.8 -1.4,-59.8 l -0.7,-18.4 -4.1,-3.9 c -7.5,-6.9 -7.7,-6.5 -7,13.8 z"
   fill="#000000"
   fill-rule="nonzero"
   opacity="1"
   stroke="none"
   vectornator:layerName="path"
   id="path14" />&#10;<path
   d="m 335,546.1 c 0,0.5 0.5,0.7 1,0.4 0.6,-0.3 1,-0.8 1,-1.1 0,-0.2 -0.4,-0.4 -1,-0.4 -0.5,0 -1,0.5 -1,1.1 z"
   fill="#000000"
   fill-rule="nonzero"
   opacity="1"
   stroke="none"
   vectornator:layerName="path"
   id="path15" />&#10;<path
   d="m 338.7,549.1 c 0.7,0.7 1.5,1 1.8,0.7 0.3,-0.3 -0.2,-0.9 -1.2,-1.2 -1.4,-0.6 -1.5,-0.5 -0.6,0.5 z"
   fill="#000000"
   fill-rule="nonzero"
   opacity="1"
   stroke="none"
   vectornator:layerName="path"
   id="path16" />&#10;<path
   d="m 341.7,553.1 c -0.4,1.6 -0.3,1.8 0.9,0.8 0.7,-0.6 1.1,-1.5 0.8,-2 -0.8,-1.3 -1.1,-1.1 -1.7,1.2 z"
   fill="#000000"
   fill-rule="nonzero"
   opacity="1"
   stroke="none"
   vectornator:layerName="path"
   id="path17" />&#10;<path
   d="m 349,553 c 0,0.5 0.5,1 1,1 0.6,0 1,-0.5 1,-1 0,-0.6 -0.4,-1 -1,-1 -0.5,0 -1,0.4 -1,1 z"
   fill="#000000"
   fill-rule="nonzero"
   opacity="1"
   stroke="none"
   vectornator:layerName="path"
   id="path18" />&#10;<path
   d="m 675.7,553.4 c -1.2,0.9 -1.4,1.6 -0.8,2.1 0.6,0.3 1.1,0.1 1.1,-0.5 0,-0.8 0.9,-1 2.7,-0.5 2.3,0.5 2.5,0.4 1.4,-0.9 -1.6,-1.9 -2.1,-1.9 -4.4,-0.2 z"
   fill="#000000"
   fill-rule="nonzero"
   opacity="1"
   stroke="none"
   vectornator:layerName="path"
   id="path19" />&#10;<path
   d="m 345,554 c 0,0.5 0.5,1 1,1 0.6,0 1,-0.5 1,-1 0,-0.6 -0.4,-1 -1,-1 -0.5,0 -1,0.4 -1,1 z"
   fill="#000000"
   fill-rule="nonzero"
   opacity="1"
   stroke="none"
   vectornator:layerName="path"
   id="path20" />&#10;<path
   d="m 360.6,563.7 c -0.9,2.2 -0.7,3.3 0.4,3.3 0.6,0 1,-0.7 1,-1.6 0,-1.4 0.3,-1.4 1.5,-0.4 1.2,1 1.5,1 1.5,-0.3 0,-2 -3.7,-2.9 -4.4,-1 z"
   fill="#000000"
   fill-rule="nonzero"
   opacity="1"
   stroke="none"
   vectornator:layerName="path"
   id="path21" />&#10;<path
   d="m 662,566 c 0,0.5 0.5,1 1.1,1 0.5,0 0.7,-0.5 0.4,-1 -0.3,-0.6 -0.8,-1 -1.1,-1 -0.2,0 -0.4,0.4 -0.4,1 z"
   fill="#000000"
   fill-rule="nonzero"
   opacity="1"
   stroke="none"
   vectornator:layerName="path"
   id="path22" />&#10;<path
   d="m 363.5,568 c 0.3,0.5 0.8,1 1.1,1 0.2,0 0.4,-0.5 0.4,-1 0,-0.6 -0.5,-1 -1.1,-1 -0.5,0 -0.7,0.4 -0.4,1 z"
   fill="#000000"
   fill-rule="nonzero"
   opacity="1"
   stroke="none"
   vectornator:layerName="path"
   id="path23" />&#10;<path
   d="m 657,568.9 c 0,0.5 0.5,1.3 1,1.6 0.6,0.3 1,0.2 1,-0.4 0,-0.5 -0.4,-1.3 -1,-1.6 -0.5,-0.3 -1,-0.2 -1,0.4 z"
   fill="#000000"
   fill-rule="nonzero"
   opacity="1"
   stroke="none"
   vectornator:layerName="path"
   id="path24" />&#10;<path
   d="m 368,571 c 0,0.5 0.9,1 2.1,1 1.1,0 1.7,-0.5 1.4,-1 -0.3,-0.6 -1.3,-1 -2.1,-1 -0.8,0 -1.4,0.4 -1.4,1 z"
   fill="#000000"
   fill-rule="nonzero"
   opacity="1"
   stroke="none"
   vectornator:layerName="path"
   id="path25" />&#10;<path
   d="m 645,571.6 c 0,0.7 2.7,3.4 3.5,3.4 0.3,0 0.1,-0.9 -0.5,-2 -1,-1.8 -3,-2.8 -3,-1.4 z"
   fill="#000000"
   fill-rule="nonzero"
   opacity="1"
   stroke="none"
   vectornator:layerName="path"
   id="path26" />&#10;<path
   d="m 441.7,576 c -6.3,4.9 -6.4,5.8 -7.1,38 -0.3,16.2 -0.9,33.1 -1.2,37.6 l -0.6,8.1 4.7,2.6 c 2.6,1.5 4.9,2.7 5,2.7 0.1,0 0.5,-11.1 1,-24.8 0.4,-13.6 1,-33.7 1.4,-44.7 0.4,-11 0.4,-20.4 0.1,-20.8 -0.4,-0.4 -1.8,0.2 -3.3,1.3 z"
   fill="#000000"
   fill-rule="nonzero"
   opacity="1"
   stroke="none"
   vectornator:layerName="path"
   id="path27" />&#10;<path
   d="m 579.5,605.7 c 0.4,17.5 1,38.4 1.4,46.5 l 0.6,14.7 4.7,-3.1 4.7,-3.1 -0.4,-10.6 c -0.3,-5.8 -0.7,-22.8 -1,-37.8 -0.3,-20.2 -0.8,-28.1 -1.9,-30.6 -1.3,-3.3 -5.9,-7.7 -7.9,-7.7 -0.6,0 -0.7,10.6 -0.2,31.7 z"
   fill="#000000"
   fill-rule="nonzero"
   opacity="1"
   stroke="none"
   vectornator:layerName="path"
   id="path28" />&#10;<path
   d="m 643,576 c 0,0.5 0.5,1 1.1,1 0.5,0 0.7,-0.5 0.4,-1 -0.3,-0.6 -0.8,-1 -1.1,-1 -0.2,0 -0.4,0.4 -0.4,1 z"
   fill="#000000"
   fill-rule="nonzero"
   opacity="1"
   stroke="none"
   vectornator:layerName="path"
   id="path29" />&#10;<path
   d="m 381,578 c 0,0.5 0.5,1 1.1,1 0.5,0 0.7,-0.5 0.4,-1 -0.3,-0.6 -0.8,-1 -1.1,-1 -0.2,0 -0.4,0.4 -0.4,1 z"
   fill="#000000"
   fill-rule="nonzero"
   opacity="1"
   stroke="none"
   vectornator:layerName="path"
   id="path30" />&#10;<path
   d="m 642,579 c 0,0.5 0.5,1 1.1,1 0.5,0 0.7,-0.5 0.4,-1 -0.3,-0.6 -0.8,-1 -1.1,-1 -0.2,0 -0.4,0.4 -0.4,1 z"
   fill="#000000"
   fill-rule="nonzero"
   opacity="1"
   stroke="none"
   vectornator:layerName="path"
   id="path31" />&#10;<path
   d="m 390,581 c 0,1.1 0.4,2 0.9,2 1.1,0 2.2,-2.6 1.4,-3.4 -1.2,-1.2 -2.3,-0.5 -2.3,1.4 z"
   fill="#000000"
   fill-rule="nonzero"
   opacity="1"
   stroke="none"
   vectornator:layerName="path"
   id="path32" />&#10;<path
   d="m 393,582 c 0,0.5 0.7,1 1.6,1 0.8,0 1.2,-0.5 0.9,-1 -0.3,-0.6 -1,-1 -1.6,-1 -0.5,0 -0.9,0.4 -0.9,1 z"
   fill="#000000"
   fill-rule="nonzero"
   opacity="1"
   stroke="none"
   vectornator:layerName="path"
   id="path33" />&#10;<path
   d="m 397,584 c 0,0.5 0.5,1 1,1 0.6,0 1,-0.5 1,-1 0,-0.6 -0.4,-1 -1,-1 -0.5,0 -1,0.4 -1,1 z"
   fill="#000000"
   fill-rule="nonzero"
   opacity="1"
   stroke="none"
   vectornator:layerName="path"
   id="path34" />&#10;<path
   d="m 365.3,584.7 c -2.9,0.2 -5.3,0.7 -5.3,1.1 0,1.8 9.2,16.2 10.3,16.2 0.6,0 7.9,-1.1 16.1,-2.5 18.1,-3 20.6,-3.1 25.6,-0.5 5.2,2.7 6,2.5 6,-1 0,-2 -0.5,-3 -1.5,-3 -0.8,0 -1.5,-0.5 -1.5,-1.1 0,-0.6 -0.6,-0.9 -1.2,-0.6 -0.7,0.2 -7.6,-1.8 -15.2,-4.4 -14.6,-5.1 -16.4,-5.3 -33.3,-4.2 z"
   fill="#000000"
   fill-rule="nonzero"
   opacity="1"
   stroke="none"
   vectornator:layerName="path"
   id="path35" />&#10;<path
   d="m 636,584.9 c -0.8,0.5 -4.8,2.2 -9,3.6 -4.1,1.5 -8.4,3 -9.5,3.5 -1.1,0.5 -3.3,1.1 -5,1.4 -6.2,1.3 -7.5,2 -7.5,4.6 0,2.9 1.4,3.1 5.6,0.9 5.1,-2.7 9.6,-2.6 28.8,0.6 18.2,2.9 16.1,3.6 21.8,-7.2 1.8,-3.4 3,-6.5 2.6,-6.8 -1.1,-1.1 -26.2,-1.7 -27.8,-0.6 z"
   fill="#000000"
   fill-rule="nonzero"
   opacity="1"
   stroke="none"
   vectornator:layerName="path"
   id="path36" />&#10;<path
   d="m 406,588.5 c 0,0.8 0.7,1.5 1.5,1.5 0.8,0 1.5,-0.7 1.5,-1.5 0,-0.8 -0.7,-1.5 -1.5,-1.5 -0.8,0 -1.5,0.7 -1.5,1.5 z"
   fill="#000000"
   fill-rule="nonzero"
   opacity="1"
   stroke="none"
   vectornator:layerName="path"
   id="path37" />&#10;<path
   d="m 615,588.1 c 0,0.5 0.5,0.7 1,0.4 0.6,-0.3 1,-0.8 1,-1.1 0,-0.2 -0.4,-0.4 -1,-0.4 -0.5,0 -1,0.5 -1,1.1 z"
   fill="#000000"
   fill-rule="nonzero"
   opacity="1"
   stroke="none"
   vectornator:layerName="path"
   id="path38" />&#10;<path
   d="m 411.5,609.6 c -2.2,0.8 -9.7,2.9 -16.7,4.6 -7.1,1.7 -12.8,3.4 -12.8,3.8 0,0.3 1.5,2.1 3.3,3.8 l 3.4,3.3 11.9,-4.4 c 16.2,-6 18.4,-7.2 18.4,-10.2 0,-2.9 -1.5,-3.1 -7.5,-0.9 z"
   fill="#000000"
   fill-rule="nonzero"
   opacity="1"
   stroke="none"
   vectornator:layerName="path"
   id="path39" />&#10;<path
   d="m 605,610.7 c 0,2.8 0.5,3.1 14.8,8.6 8.1,3.2 15.1,5.7 15.6,5.7 1.4,0 6.6,-5.2 6.6,-6.5 0,-0.5 -7.8,-3 -17.2,-5.4 -9.5,-2.5 -17.9,-4.6 -18.5,-4.9 -0.9,-0.3 -1.3,0.6 -1.3,2.5 z"
   fill="#000000"
   fill-rule="nonzero"
   opacity="1"
   stroke="none"
   vectornator:layerName="path"
   id="path40" />&#10;<path
   d="m 423.5,617.2 -3.4,3.3 -0.7,15.2 c -0.5,10.9 -0.4,15.3 0.4,15.3 0.6,0 2.7,1.4 4.7,3.1 2,1.8 3.8,2.9 4.1,2.6 0.4,-0.3 0.9,-10.1 1.2,-21.6 0.4,-19.2 0.3,-21.1 -1.2,-21.1 -0.9,0 -3.2,1.5 -5.1,3.2 z"
   fill="#000000"
   fill-rule="nonzero"
   opacity="1"
   stroke="none"
   vectornator:layerName="path"
   id="path41" />&#10;<path
   d="m 594,635.9 c 0,12.1 0.4,22.2 0.8,22.5 0.4,0.2 3.1,-1.3 6,-3.5 l 5.1,-3.9 -0.6,-14.8 c -0.5,-13.1 -0.8,-15 -2.7,-17 -1.9,-2.2 -6.7,-5.2 -8.1,-5.2 -0.3,0 -0.5,9.9 -0.5,21.9 z"
   fill="#000000"
   fill-rule="nonzero"
   opacity="1"
   stroke="none"
   vectornator:layerName="path"
   id="path42" />&#10;<path
   d="m 408.5,632.7 c -3.3,1.7 -6.1,3.6 -6.3,4.2 -0.2,0.5 2.3,3 5.5,5.5 l 5.8,4.6 0.8,-3.1 c 0.4,-1.7 0.7,-5.6 0.5,-8.7 l -0.3,-5.7 z"
   fill="#000000"
   fill-rule="nonzero"
   opacity="1"
   stroke="none"
   vectornator:layerName="path"
   id="path43" />&#10;<path
   d="m 609.4,631.6 c 0.3,0.9 0.6,4.7 0.6,8.5 0,3.8 0.4,6.9 0.9,6.9 0.5,0 3.5,-2.1 6.6,-4.6 l 5.7,-4.6 -5.9,-3.9 c -6.2,-4.2 -8.9,-4.9 -7.9,-2.3 z"
   fill="#000000"
   fill-rule="nonzero"
   opacity="1"
   stroke="none"
   vectornator:layerName="path"
   id="path44" />&#10;<path
   d="m 397.6,691.5 c 0.4,0.8 1,1.2 1.5,0.9 1.1,-0.6 0.2,-2.4 -1.1,-2.4 -0.5,0 -0.7,0.7 -0.4,1.5 z"
   fill="#000000"
   fill-rule="nonzero"
   opacity="1"
   stroke="none"
   vectornator:layerName="path"
   id="path45" />&#10;<path
   d="m 392,694.6 c -1,1.2 -0.8,1.4 1.4,1.4 2.8,0 3.5,-1.4 1.2,-2.3 -0.8,-0.3 -2,0.1 -2.6,0.9 z"
   fill="#000000"
   fill-rule="nonzero"
   opacity="1"
   stroke="none"
   vectornator:layerName="path"
   id="path46" />&#10;<path
   d="m 399,695 c 0,0.5 0.5,1 1,1 0.6,0 1,-0.5 1,-1 0,-0.6 -0.4,-1 -1,-1 -0.5,0 -1,0.4 -1,1 z"
   fill="#000000"
   fill-rule="nonzero"
   opacity="1"
   stroke="none"
   vectornator:layerName="path"
   id="path47" />&#10;<path
   d="m 419.5,697 c 0.4,1.4 0.6,3.6 0.6,5 -0.1,2.5 -0.1,2.4 1.4,-0.4 1.5,-2.8 1.4,-3.1 -0.6,-5 l -2.2,-2.1 z"
   fill="#000000"
   fill-rule="nonzero"
   opacity="1"
   stroke="none"
   vectornator:layerName="path"
   id="path48" />&#10;<path
   d="m 415,699 c 0,1.1 0.5,2 1,2 0.6,0 1,-0.9 1,-2 0,-1.1 -0.4,-2 -1,-2 -0.5,0 -1,0.9 -1,2 z"
   fill="#000000"
   fill-rule="nonzero"
   opacity="1"
   stroke="none"
   vectornator:layerName="path"
   id="path49" />&#10;<path
   d="m 399.5,699 c 0.3,0.5 0.8,1 1.1,1 0.2,0 0.4,-0.5 0.4,-1 0,-0.6 -0.5,-1 -1.1,-1 -0.5,0 -0.7,0.4 -0.4,1 z"
   fill="#000000"
   fill-rule="nonzero"
   opacity="1"
   stroke="none"
   vectornator:layerName="path"
   id="path50" />&#10;<path
   d="m 622.4,699.1 c -0.3,0.6 -0.1,1.6 0.5,2.2 0.8,0.8 1.1,0.5 1.1,-1.1 0,-2.4 -0.5,-2.8 -1.6,-1.1 z"
   fill="#000000"
   fill-rule="nonzero"
   opacity="1"
   stroke="none"
   vectornator:layerName="path"
   id="path51" />&#10;<path
   d="m 394,700 c 0,0.5 0.7,1 1.5,1 0.8,0 1.5,-0.5 1.5,-1 0,-0.6 -0.7,-1 -1.5,-1 -0.8,0 -1.5,0.4 -1.5,1 z"
   fill="#000000"
   fill-rule="nonzero"
   opacity="1"
   stroke="none"
   vectornator:layerName="path"
   id="path52" />&#10;<path
   d="m 424.4,700.1 c -0.8,1.4 1.1,3.3 2.5,2.5 0.6,-0.4 1.1,-1.1 1.1,-1.6 0,-1.3 -2.9,-2 -3.6,-0.9 z"
   fill="#000000"
   fill-rule="nonzero"
   opacity="1"
   stroke="none"
   vectornator:layerName="path"
   id="path53" />&#10;<path
   d="m 614.5,700 c -0.3,0.5 -0.1,1 0.4,1 0.6,0 1.1,-0.5 1.1,-1 0,-0.6 -0.2,-1 -0.4,-1 -0.3,0 -0.8,0.4 -1.1,1 z"
   fill="#000000"
   fill-rule="nonzero"
   opacity="1"
   stroke="none"
   vectornator:layerName="path"
   id="path54" />&#10;<path
   d="m 636.1,700.9 c 1.4,1.1 2.6,1.5 2.8,0.9 0.4,-1.2 -1.7,-2.8 -3.8,-2.8 -0.8,0 -0.3,0.8 1,1.9 z"
   fill="#000000"
   fill-rule="nonzero"
   opacity="1"
   stroke="none"
   vectornator:layerName="path"
   id="path55" />&#10;<path
   d="m 405,700.9 c 0,0.6 0.5,1.3 1,1.6 0.6,0.3 1,-0.1 1,-0.9 0,-0.9 -0.4,-1.6 -1,-1.6 -0.5,0 -1,0.4 -1,0.9 z"
   fill="#000000"
   fill-rule="nonzero"
   opacity="1"
   stroke="none"
   vectornator:layerName="path"
   id="path56" />&#10;<path
   d="m 591,701.6 c 0,0.8 0.5,1.2 1,0.9 0.6,-0.3 1,-1 1,-1.6 0,-0.5 -0.4,-0.9 -1,-0.9 -0.5,0 -1,0.7 -1,1.6 z"
   fill="#000000"
   fill-rule="nonzero"
   opacity="1"
   stroke="none"
   vectornator:layerName="path"
   id="path57" />&#10;<path
   d="m 595.2,701.9 c 0.4,1.3 1.8,1.6 1.9,0.4 0,-0.4 -0.5,-0.9 -1.1,-1.2 -0.7,-0.2 -1.1,0.2 -0.8,0.8 z"
   fill="#000000"
   fill-rule="nonzero"
   opacity="1"
   stroke="none"
   vectornator:layerName="path"
   id="path58" />&#10;<path
   d="m 631,702.4 c 0,1.5 1.8,3.1 2.6,2.3 0.7,-0.7 -0.7,-3.7 -1.7,-3.7 -0.5,0 -0.9,0.6 -0.9,1.4 z"
   fill="#000000"
   fill-rule="nonzero"
   opacity="1"
   stroke="none"
   vectornator:layerName="path"
   id="path59" />&#10;<path
   d="m 389,703 c 0,0.5 0.7,1 1.5,1 0.8,0 1.5,-0.5 1.5,-1 0,-0.6 -0.7,-1 -1.5,-1 -0.8,0 -1.5,0.4 -1.5,1 z"
   fill="#000000"
   fill-rule="nonzero"
   opacity="1"
   stroke="none"
   vectornator:layerName="path"
   id="path60" />&#10;<path
   d="m 410.5,703 c 0.3,0.5 0.8,1 1.1,1 0.2,0 0.4,-0.5 0.4,-1 0,-0.6 -0.5,-1 -1.1,-1 -0.5,0 -0.7,0.4 -0.4,1 z"
   fill="#000000"
   fill-rule="nonzero"
   opacity="1"
   stroke="none"
   vectornator:layerName="path"
   id="path61" />&#10;<path
   d="m 429.6,704.6 c -0.4,1.4 -0.4,2.9 -0.1,3.2 0.7,0.7 3.5,-3 3.2,-4.2 -0.7,-2.1 -2.5,-1.5 -3.1,1 z"
   fill="#000000"
   fill-rule="nonzero"
   opacity="1"
   stroke="none"
   vectornator:layerName="path"
   id="path62" />&#10;<path
   d="m 610,703.5 c 0,0.8 0.5,1.5 1,1.5 0.6,0 1,-0.7 1,-1.5 0,-0.8 -0.4,-1.5 -1,-1.5 -0.5,0 -1,0.7 -1,1.5 z"
   fill="#000000"
   fill-rule="nonzero"
   opacity="1"
   stroke="none"
   vectornator:layerName="path"
   id="path63" />&#10;<path
   d="m 626.2,704.2 c 0.6,1.8 2.8,2.1 2.8,0.4 0,-0.9 -0.7,-1.6 -1.6,-1.6 -0.9,0 -1.4,0.5 -1.2,1.2 z"
   fill="#000000"
   fill-rule="nonzero"
   opacity="1"
   stroke="none"
   vectornator:layerName="path"
   id="path64" />&#10;<path
   d="m 393,705 c 0,0.5 0.5,1 1,1 0.6,0 1,-0.5 1,-1 0,-0.6 -0.4,-1 -1,-1 -0.5,0 -1,0.4 -1,1 z"
   fill="#000000"
   fill-rule="nonzero"
   opacity="1"
   stroke="none"
   vectornator:layerName="path"
   id="path65" />&#10;<path
   d="m 399.7,704.6 c -0.8,0.8 0.1,2.4 1.4,2.4 0.5,0 0.9,-0.7 0.9,-1.5 0,-1.5 -1.2,-2 -2.3,-0.9 z"
   fill="#000000"
   fill-rule="nonzero"
   opacity="1"
   stroke="none"
   vectornator:layerName="path"
   id="path66" />&#10;<path
   d="m 415,705.5 c 0,0.8 0.5,1.5 1,1.5 0.6,0 1,-0.7 1,-1.5 0,-0.8 -0.4,-1.5 -1,-1.5 -0.5,0 -1,0.7 -1,1.5 z"
   fill="#000000"
   fill-rule="nonzero"
   opacity="1"
   stroke="none"
   vectornator:layerName="path"
   id="path67" />&#10;<path
   d="m 591.1,704.9 c -1.1,0.7 -1,1.1 0.7,2 2.6,1.4 4.2,1.4 4.2,0.1 0,-0.6 -0.6,-1 -1.4,-1 -0.8,0 -1.6,-0.4 -1.8,-1 -0.2,-0.5 -0.9,-0.6 -1.7,-0.1 z"
   fill="#000000"
   fill-rule="nonzero"
   opacity="1"
   stroke="none"
   vectornator:layerName="path"
   id="path68" />&#10;<path
   d="m 636.8,706 c 0.5,1.3 1.4,2.6 2,2.8 1.9,0.6 1.4,-1.3 -0.8,-3.3 -2,-1.8 -2.1,-1.8 -1.2,0.5 z"
   fill="#000000"
   fill-rule="nonzero"
   opacity="1"
   stroke="none"
   vectornator:layerName="path"
   id="path69" />&#10;<path
   d="m 423,706 c 0,0.5 0.5,1 1,1 0.6,0 1,-0.5 1,-1 0,-0.6 -0.4,-1 -1,-1 -0.5,0 -1,0.4 -1,1 z"
   fill="#000000"
   fill-rule="nonzero"
   opacity="1"
   stroke="none"
   vectornator:layerName="path"
   id="path70" />&#10;<path
   d="m 605,706 c 0,0.5 0.5,1 1,1 0.6,0 1,-0.5 1,-1 0,-0.6 -0.4,-1 -1,-1 -0.5,0 -1,0.4 -1,1 z"
   fill="#000000"
   fill-rule="nonzero"
   opacity="1"
   stroke="none"
   vectornator:layerName="path"
   id="path71" />&#10;<path
   d="m 586.2,707.1 c 0.2,0.6 0.8,1 1.3,1 0.5,0 1.1,-0.4 1.3,-1 0.2,-0.6 -0.4,-1.1 -1.3,-1.1 -0.9,0 -1.5,0.5 -1.3,1.1 z"
   fill="#000000"
   fill-rule="nonzero"
   opacity="1"
   stroke="none"
   vectornator:layerName="path"
   id="path72" />&#10;<path
   d="m 614,707.1 c 0,0.5 0.5,0.7 1,0.4 0.6,-0.3 1,-0.8 1,-1.1 0,-0.2 -0.4,-0.4 -1,-0.4 -0.5,0 -1,0.5 -1,1.1 z"
   fill="#000000"
   fill-rule="nonzero"
   opacity="1"
   stroke="none"
   vectornator:layerName="path"
   id="path73" />&#10;<path
   d="m 394.6,708.5 c -2.4,1.8 -1.8,2.6 1.2,1.8 1.2,-0.3 2.2,-1.2 2.2,-1.9 0,-1.8 -1,-1.7 -3.4,0.1 z"
   fill="#000000"
   fill-rule="nonzero"
   opacity="1"
   stroke="none"
   vectornator:layerName="path"
   id="path74" />&#10;<path
   d="m 405,708 c 0,0.5 0.5,1 1,1 0.6,0 1,-0.5 1,-1 0,-0.6 -0.4,-1 -1,-1 -0.5,0 -1,0.4 -1,1 z"
   fill="#000000"
   fill-rule="nonzero"
   opacity="1"
   stroke="none"
   vectornator:layerName="path"
   id="path75" />&#10;<path
   d="m 441,708.3 -2.5,1.1 3,0.4 c 1.6,0.2 3.3,0.9 3.7,1.5 0.4,0.6 1.1,0.8 1.5,0.3 0.4,-0.5 0.2,-1.1 -0.4,-1.3 -0.7,-0.3 -1.3,-1.1 -1.3,-1.9 0,-1.6 -0.6,-1.7 -4,-0.1 z"
   fill="#000000"
   fill-rule="nonzero"
   opacity="1"
   stroke="none"
   vectornator:layerName="path"
   id="path76" />&#10;<path
   d="m 389.2,709.2 c 0.6,1.8 2.8,2.1 2.8,0.4 0,-0.9 -0.7,-1.6 -1.6,-1.6 -0.9,0 -1.4,0.5 -1.2,1.2 z"
   fill="#000000"
   fill-rule="nonzero"
   opacity="1"
   stroke="none"
   vectornator:layerName="path"
   id="path77" />&#10;<path
   d="m 582.5,709 c -0.3,0.5 -0.1,1 0.4,1 0.6,0 1.1,-0.5 1.1,-1 0,-0.6 -0.2,-1 -0.4,-1 -0.3,0 -0.8,0.4 -1.1,1 z"
   fill="#000000"
   fill-rule="nonzero"
   opacity="1"
   stroke="none"
   vectornator:layerName="path"
   id="path78" />&#10;<path
   d="m 622.2,709.1 c 0.2,0.6 0.8,1 1.3,1 0.5,0 1.1,-0.4 1.3,-1 0.2,-0.6 -0.4,-1.1 -1.3,-1.1 -0.9,0 -1.5,0.5 -1.3,1.1 z"
   fill="#000000"
   fill-rule="nonzero"
   opacity="1"
   stroke="none"
   vectornator:layerName="path"
   id="path79" />&#10;<path
   d="m 632,709 c 0,0.5 0.7,1 1.5,1 0.8,0 1.5,-0.5 1.5,-1 0,-0.6 -0.7,-1 -1.5,-1 -0.8,0 -1.5,0.4 -1.5,1 z"
   fill="#000000"
   fill-rule="nonzero"
   opacity="1"
   stroke="none"
   vectornator:layerName="path"
   id="path80" />&#10;<path
   d="m 433.5,710.1 c -1,1.5 0.3,2.5 1.6,1.2 0.7,-0.7 0.7,-1.3 0.1,-1.7 -0.6,-0.3 -1.4,-0.1 -1.7,0.5 z"
   fill="#000000"
   fill-rule="nonzero"
   opacity="1"
   stroke="none"
   vectornator:layerName="path"
   id="path81" />&#10;<path
   d="m 610,710 c 0,0.5 0.5,1 1,1 0.6,0 1,-0.5 1,-1 0,-0.6 -0.4,-1 -1,-1 -0.5,0 -1,0.4 -1,1 z"
   fill="#000000"
   fill-rule="nonzero"
   opacity="1"
   stroke="none"
   vectornator:layerName="path"
   id="path82" />&#10;<path
   d="m 628,710.5 c 0,0.9 0.5,1.5 1.1,1.3 0.6,-0.2 1.1,-0.8 1.1,-1.3 0,-0.5 -0.5,-1.1 -1.1,-1.3 -0.6,-0.2 -1.1,0.4 -1.1,1.3 z"
   fill="#000000"
   fill-rule="nonzero"
   opacity="1"
   stroke="none"
   vectornator:layerName="path"
   id="path83" />&#10;<path
   d="m 589,710.9 c 0,0.6 0.5,1.3 1,1.6 0.6,0.3 1,-0.1 1,-0.9 0,-0.9 -0.4,-1.6 -1,-1.6 -0.5,0 -1,0.4 -1,0.9 z"
   fill="#000000"
   fill-rule="nonzero"
   opacity="1"
   stroke="none"
   vectornator:layerName="path"
   id="path84" />&#10;<path
   d="m 400,712 c 0,0.5 0.7,1 1.5,1 0.8,0 1.5,-0.5 1.5,-1 0,-0.6 -0.7,-1 -1.5,-1 -0.8,0 -1.5,0.4 -1.5,1 z"
   fill="#000000"
   fill-rule="nonzero"
   opacity="1"
   stroke="none"
   vectornator:layerName="path"
   id="path85" />&#10;<path
   d="m 453,712 c 0,0.5 0.7,1 1.5,1 0.8,0 1.5,-0.5 1.5,-1 0,-0.6 -0.7,-1 -1.5,-1 -0.8,0 -1.5,0.4 -1.5,1 z"
   fill="#000000"
   fill-rule="nonzero"
   opacity="1"
   stroke="none"
   vectornator:layerName="path"
   id="path86" />&#10;<path
   d="m 582.5,711.9 c -0.7,1.2 1.2,2.4 2.5,1.6 1.1,-0.7 0.4,-2.5 -1,-2.5 -0.5,0 -1.1,0.4 -1.5,0.9 z"
   fill="#000000"
   fill-rule="nonzero"
   opacity="1"
   stroke="none"
   vectornator:layerName="path"
   id="path87" />&#10;<path
   d="m 636.4,712.1 c -0.3,0.6 -0.1,1.6 0.5,2.2 0.9,0.9 1.4,0.8 2.1,-0.3 0.9,-1.5 0.4,-3 -1,-3 -0.5,0 -1.2,0.5 -1.6,1.1 z"
   fill="#000000"
   fill-rule="nonzero"
   opacity="1"
   stroke="none"
   vectornator:layerName="path"
   id="path88" />&#10;<path
   d="m 424.7,712.7 c -0.4,0.3 -0.7,1.1 -0.7,1.7 0,0.6 0.5,0.5 1.2,-0.2 0.6,-0.6 0.9,-1.4 0.7,-1.7 -0.3,-0.3 -0.9,-0.2 -1.2,0.2 z"
   fill="#000000"
   fill-rule="nonzero"
   opacity="1"
   stroke="none"
   vectornator:layerName="path"
   id="path89" />&#10;<path
   d="m 393.6,713.9 c -0.4,0.5 -0.2,1.2 0.3,1.5 0.5,0.4 1.2,0.2 1.5,-0.3 0.4,-0.5 0.2,-1.2 -0.3,-1.5 -0.5,-0.4 -1.2,-0.2 -1.5,0.3 z"
   fill="#000000"
   fill-rule="nonzero"
   opacity="1"
   stroke="none"
   vectornator:layerName="path"
   id="path90" />&#10;<path
   d="m 406,714 c 0,0.5 0.4,1 0.9,1 0.6,0 1.3,-0.5 1.6,-1 0.3,-0.6 -0.1,-1 -0.9,-1 -0.9,0 -1.6,0.4 -1.6,1 z"
   fill="#000000"
   fill-rule="nonzero"
   opacity="1"
   stroke="none"
   vectornator:layerName="path"
   id="path91" />&#10;<path
   d="m 437,714.1 c 0,0.5 0.5,0.7 1,0.4 0.6,-0.3 1,-0.8 1,-1.1 0,-0.2 -0.4,-0.4 -1,-0.4 -0.5,0 -1,0.5 -1,1.1 z"
   fill="#000000"
   fill-rule="nonzero"
   opacity="1"
   stroke="none"
   vectornator:layerName="path"
   id="path92" />&#10;<path
   d="m 575.5,714 c 0.3,0.5 1.3,1 2.1,1 0.8,0 1.2,-0.5 0.9,-1 -0.3,-0.6 -1.3,-1 -2.1,-1 -0.8,0 -1.2,0.4 -0.9,1 z"
   fill="#000000"
   fill-rule="nonzero"
   opacity="1"
   stroke="none"
   vectornator:layerName="path"
   id="path93" />&#10;<path
   d="m 457.2,715.1 c 0.2,0.6 0.8,1 1.3,1 0.5,0 1.1,-0.4 1.3,-1 0.2,-0.6 -0.4,-1.1 -1.3,-1.1 -0.9,0 -1.5,0.5 -1.3,1.1 z"
   fill="#000000"
   fill-rule="nonzero"
   opacity="1"
   stroke="none"
   vectornator:layerName="path"
   id="path94" />&#10;<path
   d="m 595,715 c 0,0.5 0.5,1 1.1,1 0.5,0 0.7,-0.5 0.4,-1 -0.3,-0.6 -0.8,-1 -1.1,-1 -0.2,0 -0.4,0.4 -0.4,1 z"
   fill="#000000"
   fill-rule="nonzero"
   opacity="1"
   stroke="none"
   vectornator:layerName="path"
   id="path95" />&#10;<path
   d="m 623,715 c 0,0.5 0.5,1 1,1 0.6,0 1,-0.5 1,-1 0,-0.6 -0.4,-1 -1,-1 -0.5,0 -1,0.4 -1,1 z"
   fill="#000000"
   fill-rule="nonzero"
   opacity="1"
   stroke="none"
   vectornator:layerName="path"
   id="path96" />&#10;<path
   d="m 632.7,714.6 c -0.8,0.8 0.1,2.4 1.4,2.4 0.5,0 0.9,-0.7 0.9,-1.5 0,-1.5 -1.2,-2 -2.3,-0.9 z"
   fill="#000000"
   fill-rule="nonzero"
   opacity="1"
   stroke="none"
   vectornator:layerName="path"
   id="path97" />&#10;<path
   d="m 441,716 c 0,0.5 0.5,1 1.1,1 0.5,0 0.7,-0.5 0.4,-1 -0.3,-0.6 -0.8,-1 -1.1,-1 -0.2,0 -0.4,0.4 -0.4,1 z"
   fill="#000000"
   fill-rule="nonzero"
   opacity="1"
   stroke="none"
   vectornator:layerName="path"
   id="path98" />&#10;<path
   d="m 627,716.5 c 0,0.8 0.7,1.5 1.5,1.5 0.8,0 1.5,-0.7 1.5,-1.5 0,-0.8 -0.7,-1.5 -1.5,-1.5 -0.8,0 -1.5,0.7 -1.5,1.5 z"
   fill="#000000"
   fill-rule="nonzero"
   opacity="1"
   stroke="none"
   vectornator:layerName="path"
   id="path99" />&#10;<path
   d="m 398,717 c 0,0.5 0.5,1 1,1 0.6,0 1,-0.5 1,-1 0,-0.6 -0.4,-1 -1,-1 -0.5,0 -1,0.4 -1,1 z"
   fill="#000000"
   fill-rule="nonzero"
   opacity="1"
   stroke="none"
   vectornator:layerName="path"
   id="path100" />&#10;<path
   d="m 448,717 c 0,0.5 0.5,1 1.1,1 0.5,0 0.7,-0.5 0.4,-1 -0.3,-0.6 -0.8,-1 -1.1,-1 -0.2,0 -0.4,0.4 -0.4,1 z"
   fill="#000000"
   fill-rule="nonzero"
   opacity="1"
   stroke="none"
   vectornator:layerName="path"
   id="path101" />&#10;<path
   d="m 452.5,717 c -0.8,1.3 0.5,1.3 2.5,0 1.3,-0.8 1.3,-1 -0.2,-1 -0.9,0 -2,0.4 -2.3,1 z"
   fill="#000000"
   fill-rule="nonzero"
   opacity="1"
   stroke="none"
   vectornator:layerName="path"
   id="path102" />&#10;<path
   d="m 462.7,716.7 c -0.3,0.5 -0.2,1.5 0.2,2.2 0.5,0.7 1.1,0.9 1.4,0.4 0.3,-0.5 0.2,-1.5 -0.2,-2.2 -0.5,-0.7 -1.1,-0.9 -1.4,-0.4 z"
   fill="#000000"
   fill-rule="nonzero"
   opacity="1"
   stroke="none"
   vectornator:layerName="path"
   id="path103" />&#10;<path
   d="m 571.5,717 c 0.4,0.6 1.1,0.8 1.6,0.5 1.4,-0.9 1.1,-1.5 -0.7,-1.5 -0.8,0 -1.2,0.5 -0.9,1 z"
   fill="#000000"
   fill-rule="nonzero"
   opacity="1"
   stroke="none"
   vectornator:layerName="path"
   id="path104" />&#10;<path
   d="m 579,716.9 c 0,0.6 0.5,1.3 1,1.6 0.6,0.3 1,-0.1 1,-0.9 0,-0.9 -0.4,-1.6 -1,-1.6 -0.5,0 -1,0.4 -1,0.9 z"
   fill="#000000"
   fill-rule="nonzero"
   opacity="1"
   stroke="none"
   vectornator:layerName="path"
   id="path105" />&#10;<path
   d="m 402,718 c 0,0.5 0.7,1 1.5,1 0.8,0 1.5,-0.5 1.5,-1 0,-0.6 -0.7,-1 -1.5,-1 -0.8,0 -1.5,0.4 -1.5,1 z"
   fill="#000000"
   fill-rule="nonzero"
   opacity="1"
   stroke="none"
   vectornator:layerName="path"
   id="path106" />&#10;<path
   d="m 567.2,717.9 c 0.4,1.3 1.8,1.6 1.9,0.4 0,-0.4 -0.5,-0.9 -1.1,-1.2 -0.7,-0.2 -1.1,0.2 -0.8,0.8 z"
   fill="#000000"
   fill-rule="nonzero"
   opacity="1"
   stroke="none"
   vectornator:layerName="path"
   id="path107" />&#10;<path
   d="m 636.6,717.9 c -0.7,1.1 0.3,4.1 1.4,4.1 1.1,0 1.8,-2.2 1.2,-3.8 -0.5,-1.4 -1.8,-1.6 -2.6,-0.3 z"
   fill="#000000"
   fill-rule="nonzero"
   opacity="1"
   stroke="none"
   vectornator:layerName="path"
   id="path108" />&#10;<path
   d="m 393,719 c -1.2,0.8 -1.2,1 0.3,1.6 2.1,0.8 3.5,-0.2 2.1,-1.6 -0.5,-0.5 -1.5,-0.6 -2.4,0 z"
   fill="#000000"
   fill-rule="nonzero"
   opacity="1"
   stroke="none"
   vectornator:layerName="path"
   id="path109" />&#10;<path
   d="m 618,719.1 c 0,0.5 0.5,0.7 1,0.4 0.6,-0.3 1,-0.8 1,-1.1 0,-0.2 -0.4,-0.4 -1,-0.4 -0.5,0 -1,0.5 -1,1.1 z"
   fill="#000000"
   fill-rule="nonzero"
   opacity="1"
   stroke="none"
   vectornator:layerName="path"
   id="path110" />&#10;<path
   d="m 408.2,719.9 c 0.2,0.7 0.7,1.2 1.1,1.2 1.2,-0.1 0.9,-1.5 -0.3,-2 -0.7,-0.2 -1.1,0.2 -0.8,0.8 z"
   fill="#000000"
   fill-rule="nonzero"
   opacity="1"
   stroke="none"
   vectornator:layerName="path"
   id="path111" />&#10;<path
   d="m 561.5,719.9 c -0.3,0.5 -0.1,1.2 0.5,1.6 0.5,0.3 1,-0.1 1,-0.9 0,-1.8 -0.6,-2.1 -1.5,-0.7 z"
   fill="#000000"
   fill-rule="nonzero"
   opacity="1"
   stroke="none"
   vectornator:layerName="path"
   id="path112" />&#10;<path
   d="m 573.5,720 c 0.3,0.5 0.8,1 1.1,1 0.2,0 0.4,-0.5 0.4,-1 0,-0.6 -0.5,-1 -1.1,-1 -0.5,0 -0.7,0.4 -0.4,1 z"
   fill="#000000"
   fill-rule="nonzero"
   opacity="1"
   stroke="none"
   vectornator:layerName="path"
   id="path113" />&#10;<path
   d="m 623.5,720 c -0.3,0.5 -0.1,1 0.4,1 0.6,0 1.1,-0.5 1.1,-1 0,-0.6 -0.2,-1 -0.4,-1 -0.3,0 -0.8,0.4 -1.1,1 z"
   fill="#000000"
   fill-rule="nonzero"
   opacity="1"
   stroke="none"
   vectornator:layerName="path"
   id="path114" />&#10;<path
   d="m 458,721.1 c 0,0.5 0.5,0.7 1,0.4 0.6,-0.3 1,-0.8 1,-1.1 0,-0.2 -0.4,-0.4 -1,-0.4 -0.5,0 -1,0.5 -1,1.1 z"
   fill="#000000"
   fill-rule="nonzero"
   opacity="1"
   stroke="none"
   vectornator:layerName="path"
   id="path115" />&#10;<path
   d="m 629.5,721 c -0.8,1.3 2.5,1.3 4.5,0 1.2,-0.8 0.9,-1 -1.2,-1 -1.5,0 -3,0.4 -3.3,1 z"
   fill="#000000"
   fill-rule="nonzero"
   opacity="1"
   stroke="none"
   vectornator:layerName="path"
   id="path116" />&#10;<path
   d="m 446,722.1 c 0,0.5 0.5,0.7 1,0.4 0.6,-0.3 1,-0.8 1,-1.1 0,-0.2 -0.4,-0.4 -1,-0.4 -0.5,0 -1,0.5 -1,1.1 z"
   fill="#000000"
   fill-rule="nonzero"
   opacity="1"
   stroke="none"
   vectornator:layerName="path"
   id="path117" />&#10;<path
   d="m 399,723.5 c 0,0.8 0.5,1.5 1,1.5 0.6,0 1,-0.7 1,-1.5 0,-0.8 -0.4,-1.5 -1,-1.5 -0.5,0 -1,0.7 -1,1.5 z"
   fill="#000000"
   fill-rule="nonzero"
   opacity="1"
   stroke="none"
   vectornator:layerName="path"
   id="path118" />&#10;<path
   d="m 404,723 c 0,0.5 0.5,1 1,1 0.6,0 1,-0.5 1,-1 0,-0.6 -0.4,-1 -1,-1 -0.5,0 -1,0.4 -1,1 z"
   fill="#000000"
   fill-rule="nonzero"
   opacity="1"
   stroke="none"
   vectornator:layerName="path"
   id="path119" />&#10;<path
   d="m 386,724.5 c -1,1.2 -0.9,1.6 0.4,2.1 1.4,0.5 4.6,-1.6 4.6,-3 0,-1.2 -3.8,-0.5 -5,0.9 z"
   fill="#000000"
   fill-rule="nonzero"
   opacity="1"
   stroke="none"
   vectornator:layerName="path"
   id="path120" />&#10;<path
   d="m 464,724 c 0,0.5 0.5,1 1,1 0.6,0 1,-0.5 1,-1 0,-0.6 -0.4,-1 -1,-1 -0.5,0 -1,0.4 -1,1 z"
   fill="#000000"
   fill-rule="nonzero"
   opacity="1"
   stroke="none"
   vectornator:layerName="path"
   id="path121" />&#10;<path
   d="m 556.5,723.9 c -0.3,0.5 -0.1,1.2 0.5,1.6 0.5,0.3 1,-0.1 1,-0.9 0,-1.8 -0.6,-2.1 -1.5,-0.7 z"
   fill="#000000"
   fill-rule="nonzero"
   opacity="1"
   stroke="none"
   vectornator:layerName="path"
   id="path122" />&#10;<path
   d="m 619.6,723.9 c -0.4,0.5 -0.2,1.2 0.3,1.5 0.5,0.4 1.2,0.2 1.5,-0.3 0.4,-0.5 0.2,-1.2 -0.3,-1.5 -0.5,-0.4 -1.2,-0.2 -1.5,0.3 z"
   fill="#000000"
   fill-rule="nonzero"
   opacity="1"
   stroke="none"
   vectornator:layerName="path"
   id="path123" />&#10;<path
   d="m 635.3,724.6 c -0.7,1.9 0,2.6 2.1,1.8 2,-0.8 2.1,-2 0.1,-2.8 -0.9,-0.3 -1.8,0.1 -2.2,1 z"
   fill="#000000"
   fill-rule="nonzero"
   opacity="1"
   stroke="none"
   vectornator:layerName="path"
   id="path124" />&#10;<path
   d="m 546.6,724.8 c -0.3,0.6 -0.1,1.4 0.5,1.7 1.5,1 2.5,-0.3 1.2,-1.6 -0.7,-0.7 -1.3,-0.7 -1.7,-0.1 z"
   fill="#000000"
   fill-rule="nonzero"
   opacity="1"
   stroke="none"
   vectornator:layerName="path"
   id="path125" />&#10;<path
   d="m 565.2,726 c 0,1.4 0.2,1.9 0.5,1.2 0.2,-0.6 0.2,-1.8 0,-2.5 -0.3,-0.6 -0.5,-0.1 -0.5,1.3 z"
   fill="#000000"
   fill-rule="nonzero"
   opacity="1"
   stroke="none"
   vectornator:layerName="path"
   id="path126" />&#10;<path
   d="m 613,725 c 0,0.5 0.7,1 1.5,1 0.8,0 1.5,-0.5 1.5,-1 0,-0.6 -0.7,-1 -1.5,-1 -0.8,0 -1.5,0.4 -1.5,1 z"
   fill="#000000"
   fill-rule="nonzero"
   opacity="1"
   stroke="none"
   vectornator:layerName="path"
   id="path127" />&#10;<path
   d="m 625.7,724.6 c -0.8,0.8 0.1,2.4 1.4,2.4 0.5,0 0.9,-0.7 0.9,-1.5 0,-1.5 -1.2,-2 -2.3,-0.9 z"
   fill="#000000"
   fill-rule="nonzero"
   opacity="1"
   stroke="none"
   vectornator:layerName="path"
   id="path128" />&#10;<path
   d="m 392.7,725.7 c -1.1,1 -0.8,4.3 0.3,4.3 0.6,0 1,-0.7 1,-1.5 0,-0.8 0.5,-1.5 1,-1.5 0.6,0 1,-0.5 1,-1 0,-1.1 -2.3,-1.4 -3.3,-0.3 z"
   fill="#000000"
   fill-rule="nonzero"
   opacity="1"
   stroke="none"
   vectornator:layerName="path"
   id="path129" />&#10;<path
   d="m 411.5,726 c -0.3,0.5 0.1,1 1,1 0.9,0 1.3,-0.5 1,-1 -0.3,-0.6 -0.8,-1 -1,-1 -0.2,0 -0.7,0.4 -1,1 z"
   fill="#000000"
   fill-rule="nonzero"
   opacity="1"
   stroke="none"
   vectornator:layerName="path"
   id="path130" />&#10;<path
   d="m 630.2,727 c -0.8,1.3 -0.8,2.1 -0.1,2.6 1.6,1 3.2,-1.2 2.2,-3 -0.7,-1.4 -1,-1.3 -2.1,0.4 z"
   fill="#000000"
   fill-rule="nonzero"
   opacity="1"
   stroke="none"
   vectornator:layerName="path"
   id="path131" />&#10;<path
   d="m 421,727 c 0,0.5 0.5,1 1,1 0.6,0 1,-0.5 1,-1 0,-0.6 -0.4,-1 -1,-1 -0.5,0 -1,0.4 -1,1 z"
   fill="#000000"
   fill-rule="nonzero"
   opacity="1"
   stroke="none"
   vectornator:layerName="path"
   id="path132" />&#10;<path
   d="m 601,727 c 0,0.5 0.5,1 1,1 0.6,0 1,-0.5 1,-1 0,-0.6 -0.4,-1 -1,-1 -0.5,0 -1,0.4 -1,1 z"
   fill="#000000"
   fill-rule="nonzero"
   opacity="1"
   stroke="none"
   vectornator:layerName="path"
   id="path133" />&#10;<path
   d="m 551,728 c 0,0.5 0.5,1 1,1 0.6,0 1,-0.5 1,-1 0,-0.6 -0.4,-1 -1,-1 -0.5,0 -1,0.4 -1,1 z"
   fill="#000000"
   fill-rule="nonzero"
   opacity="1"
   stroke="none"
   vectornator:layerName="path"
   id="path134" />&#10;<path
   d="m 608.5,728 c -0.3,0.5 0.1,1 0.9,1 0.9,0 1.6,-0.5 1.6,-1 0,-0.6 -0.4,-1 -0.9,-1 -0.6,0 -1.3,0.4 -1.6,1 z"
   fill="#000000"
   fill-rule="nonzero"
   opacity="1"
   stroke="none"
   vectornator:layerName="path"
   id="path135" />&#10;<path
   d="m 403,729 c 0,0.5 0.5,1 1,1 0.6,0 1,-0.5 1,-1 0,-0.6 -0.4,-1 -1,-1 -0.5,0 -1,0.4 -1,1 z"
   fill="#000000"
   fill-rule="nonzero"
   opacity="1"
   stroke="none"
   vectornator:layerName="path"
   id="path136" />&#10;<path
   d="m 616,729.5 c 0,0.8 0.5,1.5 1,1.5 0.6,0 1,-0.7 1,-1.5 0,-0.8 -0.4,-1.5 -1,-1.5 -0.5,0 -1,0.7 -1,1.5 z"
   fill="#000000"
   fill-rule="nonzero"
   opacity="1"
   stroke="none"
   vectornator:layerName="path"
   id="path137" />&#10;<path
   d="m 622,729 c -1.7,1.1 -1.3,1.5 2,2.4 1.4,0.4 2,0.4 1.4,-0.1 -0.6,-0.4 -1.3,-1.3 -1.5,-2 -0.3,-0.8 -0.9,-0.9 -1.9,-0.3 z"
   fill="#000000"
   fill-rule="nonzero"
   opacity="1"
   stroke="none"
   vectornator:layerName="path"
   id="path138" />&#10;<path
   d="m 397.5,729.9 c -1,1.7 1.2,2.1 2.5,0.6 1,-1.2 1,-1.5 -0.3,-1.5 -0.9,0 -1.8,0.4 -2.2,0.9 z"
   fill="#000000"
   fill-rule="nonzero"
   opacity="1"
   stroke="none"
   vectornator:layerName="path"
   id="path139" />&#10;<path
   d="m 408,730 c 0,0.5 0.5,1 1.1,1 0.5,0 0.7,-0.5 0.4,-1 -0.3,-0.6 -0.8,-1 -1.1,-1 -0.2,0 -0.4,0.4 -0.4,1 z"
   fill="#000000"
   fill-rule="nonzero"
   opacity="1"
   stroke="none"
   vectornator:layerName="path"
   id="path140" />&#10;<path
   d="m 547,730.6 c 0,0.8 0.5,1.2 1,0.9 0.6,-0.4 0.8,-1.1 0.5,-1.6 -0.9,-1.4 -1.5,-1.1 -1.5,0.7 z"
   fill="#000000"
   fill-rule="nonzero"
   opacity="1"
   stroke="none"
   vectornator:layerName="path"
   id="path141" />&#10;<path
   d="m 539,731 c 0,0.5 0.5,1 1,1 0.6,0 1,-0.5 1,-1 0,-0.6 -0.4,-1 -1,-1 -0.5,0 -1,0.4 -1,1 z"
   fill="#000000"
   fill-rule="nonzero"
   opacity="1"
   stroke="none"
   vectornator:layerName="path"
   id="path142" />&#10;<path
   d="m 556,731 c 0,0.5 0.5,1 1.1,1 0.5,0 0.7,-0.5 0.4,-1 -0.3,-0.6 -0.8,-1 -1.1,-1 -0.2,0 -0.4,0.4 -0.4,1 z"
   fill="#000000"
   fill-rule="nonzero"
   opacity="1"
   stroke="none"
   vectornator:layerName="path"
   id="path143" />&#10;<path
   d="m 412.5,732 c -0.3,0.5 -0.1,1 0.4,1 0.6,0 1.1,-0.5 1.1,-1 0,-0.6 -0.2,-1 -0.4,-1 -0.3,0 -0.8,0.4 -1.1,1 z"
   fill="#000000"
   fill-rule="nonzero"
   opacity="1"
   stroke="none"
   vectornator:layerName="path"
   id="path144" />&#10;<path
   d="m 424.5,732 c 0.3,0.5 0.8,1 1.1,1 0.2,0 0.4,-0.5 0.4,-1 0,-0.6 -0.5,-1 -1.1,-1 -0.5,0 -0.7,0.4 -0.4,1 z"
   fill="#000000"
   fill-rule="nonzero"
   opacity="1"
   stroke="none"
   vectornator:layerName="path"
   id="path145" />&#10;<path
   d="m 604,732 c 0,0.5 0.5,1 1.1,1 0.5,0 0.7,-0.5 0.4,-1 -0.3,-0.6 -0.8,-1 -1.1,-1 -0.2,0 -0.4,0.4 -0.4,1 z"
   fill="#000000"
   fill-rule="nonzero"
   opacity="1"
   stroke="none"
   vectornator:layerName="path"
   id="path146" />&#10;<path
   d="m 404,733 c 0,0.5 0.5,1 1,1 0.6,0 1,-0.5 1,-1 0,-0.6 -0.4,-1 -1,-1 -0.5,0 -1,0.4 -1,1 z"
   fill="#000000"
   fill-rule="nonzero"
   opacity="1"
   stroke="none"
   vectornator:layerName="path"
   id="path147" />&#10;<path
   d="m 418.5,733 c -0.3,0.5 -0.1,1 0.4,1 0.6,0 1.1,-0.5 1.1,-1 0,-0.6 -0.2,-1 -0.4,-1 -0.3,0 -0.8,0.4 -1.1,1 z"
   fill="#000000"
   fill-rule="nonzero"
   opacity="1"
   stroke="none"
   vectornator:layerName="path"
   id="path148" />&#10;<path
   d="m 534.5,733 c 0.3,0.5 0.8,1 1.1,1 0.2,0 0.4,-0.5 0.4,-1 0,-0.6 -0.5,-1 -1.1,-1 -0.5,0 -0.7,0.4 -0.4,1 z"
   fill="#000000"
   fill-rule="nonzero"
   opacity="1"
   stroke="none"
   vectornator:layerName="path"
   id="path149" />&#10;<path
   d="m 610.5,732.9 c -0.6,1.1 0.9,2.3 1.9,1.4 0.9,-0.9 0.7,-2.3 -0.3,-2.3 -0.6,0 -1.2,0.4 -1.6,0.9 z"
   fill="#000000"
   fill-rule="nonzero"
   opacity="1"
   stroke="none"
   vectornator:layerName="path"
   id="path150" />&#10;<path
   d="m 547.5,734 c 0.3,0.5 0.8,1 1.1,1 0.2,0 0.4,-0.5 0.4,-1 0,-0.6 -0.5,-1 -1.1,-1 -0.5,0 -0.7,0.4 -0.4,1 z"
   fill="#000000"
   fill-rule="nonzero"
   opacity="1"
   stroke="none"
   vectornator:layerName="path"
   id="path151" />&#10;<path
   d="m 616.7,733.6 c -0.8,0.8 0.1,2.4 1.4,2.4 0.5,0 0.9,-0.7 0.9,-1.5 0,-1.5 -1.2,-2 -2.3,-0.9 z"
   fill="#000000"
   fill-rule="nonzero"
   opacity="1"
   stroke="none"
   vectornator:layerName="path"
   id="path152" />&#10;<path
   d="m 592,735 c 0,0.5 0.5,1 1,1 0.6,0 1,-0.5 1,-1 0,-0.6 -0.4,-1 -1,-1 -0.5,0 -1,0.4 -1,1 z"
   fill="#000000"
   fill-rule="nonzero"
   opacity="1"
   stroke="none"
   vectornator:layerName="path"
   id="path153" />&#10;<path
   d="m 408.5,735.9 c -0.7,1.2 1.2,2.4 2.5,1.6 1.1,-0.7 0.4,-2.5 -1,-2.5 -0.5,0 -1.1,0.4 -1.5,0.9 z"
   fill="#000000"
   fill-rule="nonzero"
   opacity="1"
   stroke="none"
   vectornator:layerName="path"
   id="path154" />&#10;<path
   d="m 435.5,736 c -0.3,0.5 -0.1,1 0.4,1 0.6,0 1.1,-0.5 1.1,-1 0,-0.6 -0.2,-1 -0.4,-1 -0.3,0 -0.8,0.4 -1.1,1 z"
   fill="#000000"
   fill-rule="nonzero"
   opacity="1"
   stroke="none"
   vectornator:layerName="path"
   id="path155" />&#10;<path
   d="m 534.5,736 c -0.3,0.5 -0.1,1 0.4,1 0.6,0 1.1,-0.5 1.1,-1 0,-0.6 -0.2,-1 -0.4,-1 -0.3,0 -0.8,0.4 -1.1,1 z"
   fill="#000000"
   fill-rule="nonzero"
   opacity="1"
   stroke="none"
   vectornator:layerName="path"
   id="path156" />&#10;<path
   d="m 540.5,737 c 0.3,0.5 0.8,1 1.1,1 0.2,0 0.4,-0.5 0.4,-1 0,-0.6 -0.5,-1 -1.1,-1 -0.5,0 -0.7,0.4 -0.4,1 z"
   fill="#000000"
   fill-rule="nonzero"
   opacity="1"
   stroke="none"
   vectornator:layerName="path"
   id="path157" />&#10;<path
   d="m 597.5,737 c 0.4,0.6 1.1,0.8 1.6,0.5 1.4,-0.9 1.1,-1.5 -0.7,-1.5 -0.8,0 -1.2,0.5 -0.9,1 z"
   fill="#000000"
   fill-rule="nonzero"
   opacity="1"
   stroke="none"
   vectornator:layerName="path"
   id="path158" />&#10;<path
   d="m 604.5,737 c -0.3,0.5 -0.1,1 0.4,1 0.6,0 1.1,-0.5 1.1,-1 0,-0.6 -0.2,-1 -0.4,-1 -0.3,0 -0.8,0.4 -1.1,1 z"
   fill="#000000"
   fill-rule="nonzero"
   opacity="1"
   stroke="none"
   vectornator:layerName="path"
   id="path159" />&#10;<path
   d="m 613,737 c -0.8,0.5 -1.1,1.2 -0.7,1.6 0.4,0.4 1.3,0.2 1.9,-0.4 1.5,-1.5 0.7,-2.4 -1.2,-1.2 z"
   fill="#000000"
   fill-rule="nonzero"
   opacity="1"
   stroke="none"
   vectornator:layerName="path"
   id="path160" />&#10;<path
   d="m 526,738 c 0,0.5 0.5,1 1,1 0.6,0 1,-0.5 1,-1 0,-0.6 -0.4,-1 -1,-1 -0.5,0 -1,0.4 -1,1 z"
   fill="#000000"
   fill-rule="nonzero"
   opacity="1"
   stroke="none"
   vectornator:layerName="path"
   id="path161" />&#10;<path
   d="m 418,739.4 c 0,0.9 0.5,1.6 1,1.6 0.6,0 1,-0.4 1,-0.9 0,-0.6 -0.4,-1.3 -1,-1.6 -0.5,-0.3 -1,0.1 -1,0.9 z"
   fill="#000000"
   fill-rule="nonzero"
   opacity="1"
   stroke="none"
   vectornator:layerName="path"
   id="path162" />&#10;<path
   d="m 430.8,738.7 c 0.7,0.3 1.6,0.2 1.9,-0.1 0.4,-0.3 -0.2,-0.6 -1.3,-0.5 -1.1,0 -1.4,0.3 -0.6,0.6 z"
   fill="#000000"
   fill-rule="nonzero"
   opacity="1"
   stroke="none"
   vectornator:layerName="path"
   id="path163" />&#10;<path
   d="m 513.2,739.1 c 0.2,0.6 0.8,1 1.3,1 0.5,0 1.1,-0.4 1.3,-1 0.2,-0.6 -0.4,-1.1 -1.3,-1.1 -0.9,0 -1.5,0.5 -1.3,1.1 z"
   fill="#000000"
   fill-rule="nonzero"
   opacity="1"
   stroke="none"
   vectornator:layerName="path"
   id="path164" />&#10;<path
   d="m 588,739 c 0,0.5 0.5,1 1,1 0.6,0 1,-0.5 1,-1 0,-0.6 -0.4,-1 -1,-1 -0.5,0 -1,0.4 -1,1 z"
   fill="#000000"
   fill-rule="nonzero"
   opacity="1"
   stroke="none"
   vectornator:layerName="path"
   id="path165" />&#10;<path
   d="m 521,740 c 0,0.5 0.5,1 1,1 0.6,0 1,-0.5 1,-1 0,-0.6 -0.4,-1 -1,-1 -0.5,0 -1,0.4 -1,1 z"
   fill="#000000"
   fill-rule="nonzero"
   opacity="1"
   stroke="none"
   vectornator:layerName="path"
   id="path166" />&#10;<path
   d="m 593,740.9 c 0,0.6 0.5,1.3 1,1.6 0.6,0.3 1,-0.1 1,-0.9 0,-0.9 -0.4,-1.6 -1,-1.6 -0.5,0 -1,0.4 -1,0.9 z"
   fill="#000000"
   fill-rule="nonzero"
   opacity="1"
   stroke="none"
   vectornator:layerName="path"
   id="path167" />&#10;<path
   d="m 517.5,742 c 0.3,0.5 1.1,1 1.6,1 0.6,0 0.7,-0.5 0.4,-1 -0.3,-0.6 -1.1,-1 -1.6,-1 -0.6,0 -0.7,0.4 -0.4,1 z"
   fill="#000000"
   fill-rule="nonzero"
   opacity="1"
   stroke="none"
   vectornator:layerName="path"
   id="path168" />&#10;<path
   d="m 599,742 c 0,0.5 0.5,1 1,1 0.6,0 1,-0.5 1,-1 0,-0.6 -0.4,-1 -1,-1 -0.5,0 -1,0.4 -1,1 z"
   fill="#000000"
   fill-rule="nonzero"
   opacity="1"
   stroke="none"
   vectornator:layerName="path"
   id="path169" />&#10;<path
   d="m 523.5,743 c 0.3,0.5 0.8,1 1.1,1 0.2,0 0.4,-0.5 0.4,-1 0,-0.6 -0.5,-1 -1.1,-1 -0.5,0 -0.7,0.4 -0.4,1 z"
   fill="#000000"
   fill-rule="nonzero"
   opacity="1"
   stroke="none"
   vectornator:layerName="path"
   id="path170" />&#10;<path
   d="m 430,743.9 c 0,0.5 0.9,0.7 2,0.4 1.1,-0.3 2,-0.7 2,-0.9 0,-0.2 -0.9,-0.4 -2,-0.4 -1.1,0 -2,0.4 -2,0.9 z"
   fill="#000000"
   fill-rule="nonzero"
   opacity="1"
   stroke="none"
   vectornator:layerName="path"
   id="path171" />&#10;<path
   d="m 511,745 c 0,0.5 0.5,1 1,1 0.6,0 1,-0.5 1,-1 0,-0.6 -0.4,-1 -1,-1 -0.5,0 -1,0.4 -1,1 z"
   fill="#000000"
   fill-rule="nonzero"
   opacity="1"
   stroke="none"
   vectornator:layerName="path"
   id="path172" />&#10;<path
   d="m 515,746 c 0,0.5 0.5,1 1,1 0.6,0 1,-0.5 1,-1 0,-0.6 -0.4,-1 -1,-1 -0.5,0 -1,0.4 -1,1 z"
   fill="#000000"
   fill-rule="nonzero"
   opacity="1"
   stroke="none"
   vectornator:layerName="path"
   id="path173" />&#10;<path
   d="m 494,747.9 c 0,0.6 0.5,1.3 1,1.6 0.6,0.3 1,-0.1 1,-0.9 0,-0.9 -0.4,-1.6 -1,-1.6 -0.5,0 -1,0.4 -1,0.9 z"
   fill="#000000"
   fill-rule="nonzero"
   opacity="1"
   stroke="none"
   vectornator:layerName="path"
   id="path174" />&#10;<path
   d="m 502.5,749 c -0.3,0.5 0.1,1 1,1 0.9,0 1.3,-0.5 1,-1 -0.3,-0.6 -0.8,-1 -1,-1 -0.2,0 -0.7,0.4 -1,1 z"
   fill="#000000"
   fill-rule="nonzero"
   opacity="1"
   stroke="none"
   vectornator:layerName="path"
   id="path175" />&#10;<path
   d="m 498.8,751.7 c 0.7,0.3 1.6,0.2 1.9,-0.1 0.4,-0.3 -0.2,-0.6 -1.3,-0.5 -1.1,0 -1.4,0.3 -0.6,0.6 z"
   fill="#000000"
   fill-rule="nonzero"
   opacity="1"
   stroke="none"
   vectornator:layerName="path"
   id="path176" />&#10;<path
   d="m 491,754 c 0,0.5 0.5,1 1,1 0.6,0 1,-0.5 1,-1 0,-0.6 -0.4,-1 -1,-1 -0.5,0 -1,0.4 -1,1 z"
   fill="#000000"
   fill-rule="nonzero"
   opacity="1"
   stroke="none"
   vectornator:layerName="path"
   id="path177" />&#10;<path
   d="m 486.5,755 c 0.3,0.5 0.8,1 1.1,1 0.2,0 0.4,-0.5 0.4,-1 0,-0.6 -0.5,-1 -1.1,-1 -0.5,0 -0.7,0.4 -0.4,1 z"
   fill="#000000"
   fill-rule="nonzero"
   opacity="1"
   stroke="none"
   vectornator:layerName="path"
   id="path178" />&#10;<path
   d="m 482,757.1 c 0,0.5 0.5,0.7 1,0.4 0.6,-0.3 1,-0.8 1,-1.1 0,-0.2 -0.4,-0.4 -1,-0.4 -0.5,0 -1,0.5 -1,1.1 z"
   fill="#000000"
   fill-rule="nonzero"
   opacity="1"
   stroke="none"
   vectornator:layerName="path"
   id="path179" />&#10;<path
   d="m 477.5,759 c 0.3,0.5 0.8,1 1.1,1 0.2,0 0.4,-0.5 0.4,-1 0,-0.6 -0.5,-1 -1.1,-1 -0.5,0 -0.7,0.4 -0.4,1 z"
   fill="#000000"
   fill-rule="nonzero"
   opacity="1"
   stroke="none"
   vectornator:layerName="path"
   id="path180" />&#10;<path
   d="m 470,763 c 0,0.5 0.5,1 1.1,1 0.5,0 0.7,-0.5 0.4,-1 -0.3,-0.6 -0.8,-1 -1.1,-1 -0.2,0 -0.4,0.4 -0.4,1 z"
   fill="#000000"
   fill-rule="nonzero"
   opacity="1"
   stroke="none"
   vectornator:layerName="path"
   id="path181" />&#10;<path
   d="m 466,765 c 0,0.5 0.5,1 1,1 0.6,0 1,-0.5 1,-1 0,-0.6 -0.4,-1 -1,-1 -0.5,0 -1,0.4 -1,1 z"
   fill="#000000"
   fill-rule="nonzero"
   opacity="1"
   stroke="none"
   vectornator:layerName="path"
   id="path182" />&#10;<path
   d="m 462,767 c 0,0.5 0.5,1 1,1 0.6,0 1,-0.5 1,-1 0,-0.6 -0.4,-1 -1,-1 -0.5,0 -1,0.4 -1,1 z"
   fill="#000000"
   fill-rule="nonzero"
   opacity="1"
   stroke="none"
   vectornator:layerName="path"
   id="path183" />&#10;<path
   d="m 458.5,769 c -0.3,0.5 -0.1,1 0.4,1 0.6,0 1.1,-0.5 1.1,-1 0,-0.6 -0.2,-1 -0.4,-1 -0.3,0 -0.8,0.4 -1.1,1 z"
   fill="#000000"
   fill-rule="nonzero"
   opacity="1"
   stroke="none"
   vectornator:layerName="path"
   id="path184" />&#10;<path
   d="m 454.5,771 c -0.3,0.5 0.1,1 1,1 0.9,0 1.3,-0.5 1,-1 -0.3,-0.6 -0.8,-1 -1,-1 -0.2,0 -0.7,0.4 -1,1 z"
   fill="#000000"
   fill-rule="nonzero"
   opacity="1"
   stroke="none"
   vectornator:layerName="path"
   id="path185" />&#10;<path
   d="m 451,773 c 0,0.5 0.5,1 1,1 0.6,0 1,-0.5 1,-1 0,-0.6 -0.4,-1 -1,-1 -0.5,0 -1,0.4 -1,1 z"
   fill="#000000"
   fill-rule="nonzero"
   opacity="1"
   stroke="none"
   vectornator:layerName="path"
   id="path186" />&#10;<path
   d="m 448,774.9 c 0,0.6 0.5,1.3 1,1.6 0.6,0.3 1,-0.1 1,-0.9 0,-0.9 -0.4,-1.6 -1,-1.6 -0.5,0 -1,0.4 -1,0.9 z"
   fill="#000000"
   fill-rule="nonzero"
   opacity="1"
   stroke="none"
   vectornator:layerName="path"
   id="path187" />&#10;<path
   d="m 451.5,778 c 0.3,0.5 0.8,1 1.1,1 0.2,0 0.4,-0.5 0.4,-1 0,-0.6 -0.5,-1 -1.1,-1 -0.5,0 -0.7,0.4 -0.4,1 z"
   fill="#000000"
   fill-rule="nonzero"
   opacity="1"
   stroke="none"
   vectornator:layerName="path"
   id="path188" />&#10;<path
   d="m 444,782 c 0,0.5 0.5,1 1.1,1 0.5,0 0.7,-0.5 0.4,-1 -0.3,-0.6 -0.8,-1 -1.1,-1 -0.2,0 -0.4,0.4 -0.4,1 z"
   fill="#000000"
   fill-rule="nonzero"
   opacity="1"
   stroke="none"
   vectornator:layerName="path"
   id="path189" />&#10;<path
   d="m 440,784 c 0,0.5 0.5,1 1,1 0.6,0 1,-0.5 1,-1 0,-0.6 -0.4,-1 -1,-1 -0.5,0 -1,0.4 -1,1 z"
   fill="#000000"
   fill-rule="nonzero"
   opacity="1"
   stroke="none"
   vectornator:layerName="path"
   id="path190" />&#10;<path
   d="m 431.5,787 c 0.3,0.5 0.8,1 1.1,1 0.2,0 0.4,-0.5 0.4,-1 0,-0.6 -0.5,-1 -1.1,-1 -0.5,0 -0.7,0.4 -0.4,1 z"
   fill="#000000"
   fill-rule="nonzero"
   opacity="1"
   stroke="none"
   vectornator:layerName="path"
   id="path191" />&#10;<path
   d="m 426.1,794.6 c 0,1.1 0.3,1.4 0.6,0.6 0.3,-0.7 0.2,-1.6 -0.1,-1.9 -0.3,-0.4 -0.6,0.2 -0.5,1.3 z"
   fill="#000000"
   fill-rule="nonzero"
   opacity="1"
   stroke="none"
   vectornator:layerName="path"
   id="path192" />&#10;<path
   d="m 416,801.8 c 0,0.5 0.7,1.3 1.6,1.6 1,0.4 1.4,0.1 1.2,-0.6 -0.5,-1.5 -2.8,-2.3 -2.8,-1 z"
   fill="#000000"
   fill-rule="nonzero"
   opacity="1"
   stroke="none"
   vectornator:layerName="path"
   id="path193" />&#10;<path
   d="m 414,808 c 0,0.5 0.5,1 1,1 0.6,0 1,-0.5 1,-1 0,-0.6 -0.4,-1 -1,-1 -0.5,0 -1,0.4 -1,1 z"
   fill="#000000"
   fill-rule="nonzero"
   opacity="1"
   stroke="none"
   vectornator:layerName="path"
   id="path194" />&#10;<path
   d="m 409.5,814 c -0.3,0.5 -0.1,1 0.4,1 0.6,0 1.1,-0.5 1.1,-1 0,-0.6 -0.2,-1 -0.4,-1 -0.3,0 -0.8,0.4 -1.1,1 z"
   fill="#000000"
   fill-rule="nonzero"
   opacity="1"
   stroke="none"
   vectornator:layerName="path"
   id="path195" />&#10;<path
   d="m 582.5,872 c 0.3,0.5 0.8,1 1.1,1 0.2,0 0.4,-0.5 0.4,-1 0,-0.6 -0.5,-1 -1.1,-1 -0.5,0 -0.7,0.4 -0.4,1 z"
   fill="#000000"
   fill-rule="nonzero"
   opacity="1"
   stroke="none"
   vectornator:layerName="path"
   id="path196" />&#10;<path
   d="m 576,877 c 0,0.5 0.5,1 1,1 0.6,0 1,-0.5 1,-1 0,-0.6 -0.4,-1 -1,-1 -0.5,0 -1,0.4 -1,1 z"
   fill="#000000"
   fill-rule="nonzero"
   opacity="1"
   stroke="none"
   vectornator:layerName="path"
   id="path197" />&#10;<path
   d="m 569.5,881 c 0.3,0.5 1.1,1 1.6,1 0.6,0 0.7,-0.5 0.4,-1 -0.3,-0.6 -1.1,-1 -1.6,-1 -0.6,0 -0.7,0.4 -0.4,1 z"
   fill="#000000"
   fill-rule="nonzero"
   opacity="1"
   stroke="none"
   vectornator:layerName="path"
   id="path198" />&#10;<path
   d="m 575.5,882 c 0.4,0.6 1.1,0.8 1.6,0.5 1.4,-0.9 1.1,-1.5 -0.7,-1.5 -0.8,0 -1.2,0.5 -0.9,1 z"
   fill="#000000"
   fill-rule="nonzero"
   opacity="1"
   stroke="none"
   vectornator:layerName="path"
   id="path199" />&#10;<path
   d="m 563,885 c 0,0.5 0.5,1 1,1 0.6,0 1,-0.5 1,-1 0,-0.6 -0.4,-1 -1,-1 -0.5,0 -1,0.4 -1,1 z"
   fill="#000000"
   fill-rule="nonzero"
   opacity="1"
   stroke="none"
   vectornator:layerName="path"
   id="path200" />&#10;<path
   d="m 523.1,902.9 c -3.6,1.5 -6.6,3.2 -6.8,3.7 -0.3,0.8 29.7,11.1 40.5,13.9 3.7,1 2.5,-0.9 -4.2,-7.2 -6.6,-6.3 -18.1,-13.4 -21.3,-13.2 -1,0.1 -4.7,1.3 -8.2,2.8 z"
   fill="#000000"
   fill-rule="nonzero"
   opacity="1"
   stroke="none"
   vectornator:layerName="path"
   id="path201" />&#10;<path
   d="m 488,909.9 c 0,0.5 0.5,1.3 1,1.6 0.6,0.3 1,0.2 1,-0.4 0,-0.5 -0.4,-1.3 -1,-1.6 -0.5,-0.3 -1,-0.2 -1,0.4 z"
   fill="#000000"
   fill-rule="nonzero"
   opacity="1"
   stroke="none"
   vectornator:layerName="path"
   id="path202" />&#10;</g>&#10;<g
   fill="#000000"
   opacity="1"
   stroke="none"
   vectornator:layerName="Text 1"
   id="g209">&#10;<path
   d="m 411.74,142.888 c 0,-2.064 0.36,-3.888 1.08,-5.472 0.72,-1.584 1.68,-2.904 2.88,-3.96 1.152,-1.008 2.46,-1.776 3.924,-2.304 1.464,-0.528 2.94,-0.792 4.428,-0.792 1.488,0 2.964,0.264 4.428,0.792 1.464,0.528 2.796,1.296 3.996,2.304 1.152,1.056 2.088,2.376 2.808,3.96 0.72,1.584 1.08,3.408 1.08,5.472 v 27.072 c 0,2.16 -0.36,4.008 -1.08,5.544 -0.72,1.536 -1.656,2.808 -2.808,3.816 -1.2,1.056 -2.532,1.848 -3.996,2.376 -1.464,0.528 -2.94,0.792 -4.428,0.792 -1.488,0 -2.964,-0.264 -4.428,-0.792 -1.464,-0.528 -2.772,-1.32 -3.924,-2.376 -1.2,-1.008 -2.16,-2.28 -2.88,-3.816 -0.72,-1.536 -1.08,-3.384 -1.08,-5.544 z m 7.344,27.072 c 0,1.776 0.492,3.084 1.476,3.924 0.984,0.84 2.148,1.26 3.492,1.26 1.344,0 2.508,-0.42 3.492,-1.26 0.984,-0.84 1.476,-2.148 1.476,-3.924 v -27.072 c 0,-1.776 -0.492,-3.084 -1.476,-3.924 -0.984,-0.84 -2.148,-1.26 -3.492,-1.26 -1.344,0 -2.508,0.42 -3.492,1.26 -0.984,0.84 -1.476,2.148 -1.476,3.924 z"
   id="path203" />&#10;<path
   d="m 450.188,137.704 v 15.984 h 4.176 c 1.296,0 2.328,-0.18 3.096,-0.54 0.768,-0.36 1.368,-0.876 1.8,-1.548 0.384,-0.672 0.648,-1.5 0.792,-2.484 0.144,-0.984 0.216,-2.124 0.216,-3.42 0,-1.296 -0.072,-2.436 -0.216,-3.42 -0.144,-0.984 -0.432,-1.836 -0.864,-2.556 -0.912,-1.344 -2.64,-2.016 -5.184,-2.016 z m -7.344,44.352 v -51.264 h 11.808 c 8.64,0 12.96,5.016 12.96,15.048 0,3.024 -0.468,5.592 -1.404,7.704 -0.936,2.112 -2.58,3.816 -4.932,5.112 l 7.92,23.4 h -7.776 l -6.84,-21.888 h -4.392 v 21.888 z"
   id="path204" />&#10;<path
   d="m 477.044,182.056 v -44.352 h -8.496 v -6.912 h 24.336 v 6.912 h -8.496 v 44.352 z"
   id="path205" />&#10;<path
   d="m 496.124,182.056 v -51.264 h 7.344 v 21.96 h 9.072 v -21.96 h 7.344 v 51.264 h -7.344 v -22.824 h -9.072 v 22.824 z"
   id="path206" />&#10;<path
   d="m 541.628,164.128 -3.6,-18.576 h -0.144 l -3.6,18.576 z m -18.144,17.928 11.448,-51.264 h 6.12 l 11.448,51.264 h -7.344 l -2.16,-11.016 h -10.008 l -2.16,11.016 z"
   id="path207" />&#10;<path
   d="m 555.812,182.056 v -51.264 h 7.056 l 11.088,30.888 h 0.144 v -30.888 h 7.344 v 51.264 h -6.912 L 563.3,151.24 h -0.144 v 30.816 z"
   id="path208" />&#10;<path
   d="m 594.98,169.96 c 0,1.776 0.492,3.084 1.476,3.924 0.984,0.84 2.148,1.26 3.492,1.26 0.672,0 1.2,-0.096 1.584,-0.288 l -3.312,-2.664 3.744,-4.464 2.952,2.376 v -0.144 -27.072 c 0,-1.776 -0.492,-3.084 -1.476,-3.924 -0.984,-0.84 -2.148,-1.26 -3.492,-1.26 -1.344,0 -2.508,0.42 -3.492,1.26 -0.984,0.84 -1.476,2.148 -1.476,3.924 z m -7.344,-27.072 c 0,-2.064 0.36,-3.888 1.08,-5.472 0.72,-1.584 1.68,-2.904 2.88,-3.96 1.152,-1.008 2.46,-1.776 3.924,-2.304 1.464,-0.528 2.94,-0.792 4.428,-0.792 1.488,0 2.964,0.264 4.428,0.792 1.464,0.528 2.796,1.296 3.996,2.304 1.152,1.056 2.088,2.376 2.808,3.96 0.72,1.584 1.08,3.408 1.08,5.472 v 27.072 c 0,2.016 -0.36,3.768 -1.08,5.256 l 4.536,3.672 -3.744,4.464 -4.32,-3.528 c -2.208,1.776 -4.776,2.664 -7.704,2.664 -1.488,0 -2.964,-0.264 -4.428,-0.792 -1.464,-0.528 -2.772,-1.32 -3.924,-2.376 -1.2,-1.008 -2.16,-2.28 -2.88,-3.816 -0.72,-1.536 -1.08,-3.384 -1.08,-5.544 z"
   id="path209" />&#10;</g>&#10;</g>&#10;</svg>
