<?xml version="1.0" encoding="UTF-8" standalone="no"?>
<!DOCTYPE svg PUBLIC "-//W3C//DTD SVG 1.1//EN" "http://www.w3.org/Graphics/SVG/1.1/DTD/svg11.dtd">
<svg width="100%" height="100%" viewBox="0 0 560 250" version="1.1" xmlns="http://www.w3.org/2000/svg" xmlns:xlink="http://www.w3.org/1999/xlink" xml:space="preserve" xmlns:serif="http://www.serif.com/" style="fill-rule:evenodd;clip-rule:evenodd;stroke-linejoin:round;stroke-miterlimit:2;">
    <g transform="matrix(1.08615,0,0,1.08615,-184.899,-21.7491)">
        <path d="M175.674,147.495C175.674,137.604 179.213,129.19 186.291,122.253C193.369,115.315 201.994,111.846 212.166,111.846C222.385,111.846 231.057,115.339 238.182,122.323C245.213,129.307 248.729,137.885 248.729,148.057C248.729,158.323 245.19,166.924 238.111,173.862C230.986,180.753 222.244,184.198 211.885,184.198C201.619,184.198 193.018,180.682 186.08,173.651C179.143,166.714 175.674,157.995 175.674,147.495ZM191.846,147.776C191.846,154.62 193.674,160.034 197.33,164.018C201.08,168.049 206.026,170.065 212.166,170.065C218.354,170.065 223.299,168.073 227.002,164.089C230.705,160.104 232.557,154.784 232.557,148.128C232.557,141.471 230.705,136.151 227.002,132.167C223.252,128.135 218.307,126.12 212.166,126.12C206.119,126.12 201.221,128.135 197.471,132.167C193.721,136.198 191.846,141.401 191.846,147.776Z" style="fill-rule:nonzero;"/>
        <path d="M175.674,147.495C175.674,137.604 179.213,129.19 186.291,122.253C193.369,115.315 201.994,111.846 212.166,111.846C222.385,111.846 231.057,115.339 238.182,122.323C245.213,129.307 248.729,137.885 248.729,148.057C248.729,158.323 245.19,166.924 238.111,173.862C230.986,180.753 222.244,184.198 211.885,184.198C201.619,184.198 193.018,180.682 186.08,173.651C179.143,166.714 175.674,157.995 175.674,147.495ZM191.846,147.776C191.846,154.62 193.674,160.034 197.33,164.018C201.08,168.049 206.026,170.065 212.166,170.065C218.354,170.065 223.299,168.073 227.002,164.089C230.705,160.104 232.557,154.784 232.557,148.128C232.557,141.471 230.705,136.151 227.002,132.167C223.252,128.135 218.307,126.12 212.166,126.12C206.119,126.12 201.221,128.135 197.471,132.167C193.721,136.198 191.846,141.401 191.846,147.776Z" style="fill-rule:nonzero;"/>
        <path d="M265.463,113.745L281.283,113.745L281.283,119.862C284.19,116.815 286.768,114.729 289.018,113.604C291.315,112.432 294.033,111.846 297.174,111.846C301.346,111.846 305.705,113.206 310.252,115.924L303.01,130.409C300.01,128.253 297.08,127.174 294.221,127.174C285.596,127.174 281.283,133.69 281.283,146.721L281.283,182.229L265.463,182.229L265.463,113.745Z" style="fill-rule:nonzero;"/>
        <path d="M496.229,113.745L512.119,113.745L512.119,182.229L496.229,182.229L496.229,175.057C489.713,181.151 482.705,184.198 475.205,184.198C465.736,184.198 457.908,180.776 451.721,173.932C445.58,166.948 442.51,158.229 442.51,147.776C442.51,137.51 445.58,128.956 451.721,122.112C457.861,115.268 465.549,111.846 474.783,111.846C482.752,111.846 489.901,115.128 496.229,121.69L496.229,113.745ZM458.682,147.776C458.682,154.339 460.44,159.682 463.955,163.807C467.565,167.979 472.111,170.065 477.596,170.065C483.455,170.065 488.19,168.049 491.799,164.018C495.408,159.846 497.213,154.549 497.213,148.128C497.213,141.706 495.408,136.409 491.799,132.237C488.19,128.159 483.502,126.12 477.736,126.12C472.299,126.12 467.752,128.182 464.096,132.307C460.486,136.479 458.682,141.635 458.682,147.776Z" style="fill-rule:nonzero;"/>
        <path d="M532.088,113.745L547.979,113.745L547.979,120.073C553.51,114.589 559.744,111.846 566.682,111.846C574.651,111.846 580.861,114.354 585.315,119.37C589.158,123.635 591.08,130.596 591.08,140.253L591.08,182.229L575.19,182.229L575.19,143.979C575.19,137.229 574.252,132.565 572.377,129.987C570.549,127.362 567.221,126.049 562.393,126.049C557.143,126.049 553.416,127.784 551.213,131.253C549.057,134.674 547.979,140.651 547.979,149.182L547.979,182.229L532.088,182.229L532.088,113.745Z" style="fill-rule:nonzero;"/>
    </g>
    <g transform="matrix(1.08615,0,0,1.08615,-150.399,-19.5484)">
        <path d="M335.041,61.445L335,60.931C334.929,59.934 334.751,52.951 334.573,42.869C334.324,27.906 334.466,22.812 335.036,23.026C335.285,23.097 335.713,24.664 336.034,26.553C337.031,32.288 337.601,33.82 339.418,35.53L341.057,37.026L341.128,41.658C341.199,44.187 341.271,46.467 341.271,46.681C341.306,46.966 341.912,47.144 342.909,47.144L342.934,47.144C343.931,47.144 344.537,46.966 344.573,46.681C344.573,46.467 344.644,44.187 344.715,41.658L344.786,37.026L346.425,35.53C348.242,33.82 348.812,32.288 349.81,26.553C350.13,24.664 350.558,23.097 350.807,23.026C351.377,22.812 351.52,27.906 351.27,42.869C351.092,52.951 350.914,59.934 350.843,60.931L350.802,61.445L350.839,61.445L350.839,117.414C356.464,112.351 362.675,109.82 369.472,109.82C377.207,109.82 383.394,112.328 388.035,117.344C391.972,121.703 393.941,128.664 393.941,138.226L393.941,180.203L378.121,180.203L378.121,139.703C378.121,134.219 377.148,130.246 375.203,127.785C373.257,125.324 370.128,124.094 365.816,124.094C360.285,124.094 356.394,125.805 354.144,129.226C351.941,132.695 350.839,138.648 350.839,147.086L350.839,180.203L335.019,180.203L335.019,61.445L335.041,61.445Z" style="fill-rule:nonzero;"/>
    </g>
    <g transform="matrix(1.08615,0,0,1.08615,283.973,-20.8971)">
        <path d="M175.674,147.495C175.674,137.604 179.213,129.19 186.291,122.253C193.369,115.315 201.994,111.846 212.166,111.846C222.385,111.846 231.057,115.339 238.182,122.323C245.213,129.307 248.729,137.885 248.729,148.057C248.729,158.323 245.19,166.924 238.111,173.862C230.986,180.753 222.244,184.198 211.885,184.198C201.619,184.198 193.018,180.682 186.08,173.651C179.143,166.714 175.674,157.995 175.674,147.495ZM191.846,147.776C191.846,154.62 193.674,160.034 197.33,164.018C201.08,168.049 206.026,170.065 212.166,170.065C218.354,170.065 223.299,168.073 227.002,164.089C230.705,160.104 232.557,154.784 232.557,148.128C232.557,141.471 230.705,136.151 227.002,132.167C223.252,128.135 218.307,126.12 212.166,126.12C206.119,126.12 201.221,128.135 197.471,132.167C193.721,136.198 191.846,141.401 191.846,147.776Z" style="fill-rule:nonzero;"/>
    </g>
    <g transform="matrix(0.731828,0,0,0.586268,446.523,67.5564)">
        <rect x="60.051" y="92.692" width="45.816" height="13.994"/>
    </g>
    <g transform="matrix(0.890617,0,0,0.586268,436.499,81.6764)">
        <rect x="60.051" y="92.692" width="45.816" height="13.994"/>
    </g>
    <g transform="matrix(0.780053,0,0,0.586268,441.627,95.7965)">
        <rect x="60.051" y="92.692" width="45.816" height="13.994"/>
    </g>
    <g transform="matrix(-0.731828,-8.96231e-17,7.17971e-17,-0.586268,583.366,280.684)">
        <rect x="60.051" y="92.692" width="45.816" height="13.994"/>
    </g>
    <g transform="matrix(-0.890617,-1.09069e-16,7.17971e-17,-0.586268,595.079,266.564)">
        <rect x="60.051" y="92.692" width="45.816" height="13.994"/>
    </g>
    <g transform="matrix(-0.780053,-9.5529e-17,7.17971e-17,-0.586268,588.262,252.444)">
        <rect x="60.051" y="92.692" width="45.816" height="13.994"/>
    </g>
    <g transform="matrix(1.08615,0,0,1.08615,-297.506,-0.243393)">
        <path d="M728.012,159.971C728.183,159.926 730.702,159.25 731.881,158.094C739.006,151.203 738.413,154.963 748.772,154.963C759.038,154.963 767.639,158.479 774.577,165.51C781.514,172.448 784.983,181.166 784.983,191.666C784.983,201.557 781.444,209.971 774.366,216.908C767.617,223.523 759.462,226.985 749.901,227.292L749.901,213.004C755.304,212.711 759.732,210.708 763.186,206.994C766.936,202.963 768.811,197.76 768.811,191.385C768.811,184.541 766.983,179.127 763.327,175.143C759.577,171.112 754.514,170.294 748.491,169.096C736.102,166.632 728.447,159.986 728.012,159.971ZM728.012,159.971L728.003,159.973C728.005,159.971 728.007,159.971 728.009,159.971L728.012,159.971Z" style="fill-rule:nonzero;"/>
    </g>
    <g transform="matrix(1.08615,0,0,1.08615,-184.899,-21.7491)">
        <path d="M340.838,128.51L340.838,182.229L325.018,182.229L325.018,128.51L318.268,128.51L318.268,113.745L325.018,113.745L325.018,88.643L340.838,88.643L340.838,113.745L353.143,113.745L353.143,128.51L340.838,128.51Z" style="fill-rule:nonzero;"/>
    </g>
    <g transform="matrix(1.08615,0,0,1.31598,183.756,-12.3742)">
        <path d="M336.737,117.839L325.018,113.745L325.018,88.643L340.838,88.643C339.752,91.166 339.338,97.43 339.083,98.921C338.794,109.295 342.447,106.705 336.737,117.839Z" style="fill-rule:nonzero;"/>
    </g>
</svg>
